<?xml version="1.0" standalone="no"?>
<!DOCTYPE svg PUBLIC "-//W3C//DTD SVG 1.1//EN" "http://www.w3.org/Graphics/SVG/1.1/DTD/svg11.dtd" >
<svg xmlns="http://www.w3.org/2000/svg" xmlns:xlink="http://www.w3.org/1999/xlink" version="1.1">
<metadata>
Created by FontForge 20160405 at Sun Jul 31 18:02:45 2016
 By www-data
Copyright 2014 Adobe Systems Incorporated. All rights reserved.
</metadata>
<defs>
<font id="Bringin" horiz-adv-x="433" >
  <font-face 
    font-family="Bringin"
    font-weight="400"
    font-stretch="normal"
    units-per-em="1000"
    panose-1="0 0 0 0 0 0 0 0 0 0"
    ascent="750"
    descent="-250"
    x-height="493"
    cap-height="707"
    bbox="-1123 -453.184 1990 1095.95"
    underline-thickness="50"
    underline-position="-100"
    unicode-range="U+0020-007D"
  />
<missing-glyph horiz-adv-x="300" 
 />
    <glyph glyph-name="B_r" unicode="Br" horiz-adv-x="1077" 
d="M1148 81l9 -22c-277 -164 -397 34 -339 334c-16 -7 -32 -9 -47 -8c-18 -37 -51 -84 -94 -121v0c4 -27 -2 -60 -22 -101c-88 -179 -423 -270 -447 42c-341 167 -224 539 75 565c294 26 366 -147 180 -398c38 7 162 -1 202 -72v0c32 31 56 69 67 99c-48 32 -73 112 -27 210
l88 -50c-68 -189 37 -169 50 -66c14 -4 115 -34 109 -58c-76 -318 -35 -480 196 -354zM218 302c18 106 71 262 106 336c91 -24 104 -53 101 -63c-12 -38 -83 -234 -95 -383c96 -18 184 6 253 46c-19 33 -73 52 -180 38c-24 11 -22 47 -9 65c159 219 148 331 -35 331
c-320 -1 -427 -326 -149 -434c2 17 6 53 8 64zM437 36c79 27 153 108 154 169c-68 -36 -183 -52 -265 -33c-3 -103 22 -166 111 -136z" />
    <glyph glyph-name="y_r" unicode="yr" horiz-adv-x="796" 
d="M206 -208v0c-136 -136 -315 107 -32 175c14 56 30 143 39 213c-109 -360 -293 -91 -174 361c90 -28 112 -45 109 -58c-50 -181 -47 -380 -10 -371c38 10 92 241 98 383c0 13 119 -30 118 -40c0 -12 -2 -39 -5 -76c42 -14 82 6 102 33c-48 32 -73 112 -27 210l88 -51
c-68 -188 37 -169 50 -65c14 -5 115 -34 109 -58c-76 -319 -35 -480 196 -354l9 -23c-277 -163 -397 35 -339 335c-19 -8 -37 -10 -54 -7c-25 -32 -74 -68 -136 -46c-13 -143 -37 -457 -141 -561zM165 -66c-105 -33 -120 -97 -100 -116c18 -18 65 2 100 116z" />
    <glyph glyph-name="f_r" unicode="fr" horiz-adv-x="837" 
d="M577 393v0c-18 -8 -37 -10 -54 -7c-17 -227 -129 -406 -260 -442c-108 -429 -461 -67 -111 20c19 73 30 160 40 252c-83 -7 -74 -7 -97 56c0 0 40 -22 100 -24c7 77 -2 402 137 379c124 -21 77 -236 -5 -365c32 6 62 14 86 22c1 -12 0 -22 -6 -24
c-32 -10 -61 -20 -98 -29c-9 -83 -18 -158 -36 -243c144 46 220 285 229 405c-55 27 -87 111 -38 216l88 -51c-68 -188 37 -169 50 -65c15 -5 115 -34 109 -58c-75 -319 -34 -480 197 -354l9 -23c-278 -163 -398 35 -340 335zM313 274v0c80 133 73 300 53 295
c-35 -9 -50 -254 -53 -295zM141 -80c-91 -28 -114 -80 -106 -106c10 -31 65 -25 106 106z" />
    <glyph glyph-name="v_r" unicode="vr" horiz-adv-x="738" 
d="M398 397v0v0zM95 123c26 88 125 328 172 387c0 0 8 2 18 0c19 0 40 -9 38 -27c-10 -86 24 -135 56 -72c-39 37 -54 111 -13 198l88 -50c-68 -189 37 -169 50 -66c15 -4 115 -34 109 -57c-76 -319 -35 -481 196 -355l9 -22c-277 -164 -397 34 -339 334
c-29 -12 -58 -10 -81 4c-59 -98 -114 1 -112 50c1 3 1 4 0 7c-66 -93 -144 -285 -178 -446c-9 -17 -76 -3 -86 27c-32 98 -27 323 10 468c92 -28 117 -46 112 -58c-18 -50 -45 -208 -49 -322z" />
    <glyph glyph-name="j_r" unicode="jr" horiz-adv-x="767" 
d="M330 500v0c-149 19 -88 214 -88 214c93 -15 112 -49 110 -62c-4 -44 -16 -108 -22 -152zM507 393v0c-58 -300 62 -498 340 -334l-10 22c-231 -126 -272 35 -196 354c6 24 -94 53 -109 58c-13 -104 -118 -123 -50 66l-88 50c-46 -98 -21 -178 27 -210
c-20 -26 -58 -45 -99 -33c3 37 5 64 6 76c0 13 -55 27 -119 40c-1 -105 -19 -374 -58 -526c-350 -87 4 -439 113 -10c29 128 44 263 56 393c60 -19 109 16 133 47c17 -3 35 -1 54 7zM142 -77c-37 -119 -86 -136 -102 -115c-17 21 1 83 102 115z" />
    <glyph glyph-name="b_r" unicode="br" horiz-adv-x="814" 
d="M252 444c-75 80 -205 -358 -80 -356c61 2 148 285 80 356v0zM554 397c-18 -7 -37 -9 -54 -6c-21 -27 -59 -56 -107 -52c5 -144 -82 -316 -173 -334c-216 -44 -234 211 -212 368c19 127 67 300 102 389c91 -28 104 -64 101 -76c-18 -69 -42 -148 -61 -227
c18 24 38 43 60 54c51 27 103 5 140 -42c22 -29 35 -65 40 -104c33 -2 62 16 78 37c-48 32 -73 112 -27 210l88 -51c-68 -188 37 -169 50 -65c15 -5 115 -34 109 -58c-76 -319 -35 -480 197 -355l9 -22c-278 -163 -398 35 -340 334z" />
    <glyph glyph-name="k_r" unicode="kr" horiz-adv-x="831" 
d="M321 483c0 0 -66 -74 -103 -160c-8 -88 28 -195 89 -242c117 -90 184 244 189 313c-55 27 -86 111 -37 216l87 -51c-67 -188 38 -169 51 -65c14 -5 114 -34 109 -58c-76 -319 -35 -481 196 -355l9 -22c-277 -163 -398 35 -339 334c-19 -8 -37 -9 -55 -6
c-4 -53 -32 -370 -181 -376c-106 -5 -156 69 -184 143c-16 -45 -33 -94 -50 -147c-6 -17 -76 -3 -85 27c-53 188 37 557 102 723c91 -28 106 -64 101 -76c-43 -104 -116 -443 -126 -559c36 105 133 361 180 362c25 1 34 -1 47 -1z" />
    <glyph glyph-name="u_r" unicode="ur" horiz-adv-x="884" 
d="M624 398c-18 -8 -37 -10 -54 -6c-9 -119 -13 -374 -152 -372c-105 1 -179 97 -172 267c-101 -523 -337 -263 -207 230c91 -28 113 -45 109 -58c-49 -181 -42 -364 -6 -354c47 12 103 331 127 409c90 -28 112 -45 109 -58c-47 -199 -49 -337 13 -381
c133 -97 154 274 158 324c-55 26 -87 110 -38 216l88 -51c-68 -189 37 -169 50 -66c15 -4 115 -33 109 -57c-76 -319 -35 -481 196 -355l10 -22c-278 -163 -398 34 -340 334z" />
    <glyph glyph-name="e_r" unicode="er" horiz-adv-x="763" 
d="M503 397v0c-18 -8 -37 -10 -54 -7c-11 -142 -65 -346 -226 -384c-257 -62 -300 395 -82 495c164 77 305 -78 -33 -330c18 -248 296 -111 320 227c-55 26 -87 110 -38 215l88 -50c-68 -189 37 -169 50 -66c15 -5 115 -34 109 -58c-75 -319 -34 -480 197 -354l9 -22
c-278 -164 -398 34 -340 334zM110 213c134 124 162 189 146 205c-21 22 -131 -56 -146 -205z" />
    <glyph glyph-name="h_r" unicode="hr" horiz-adv-x="867" 
d="M607 393c-18 -8 -37 -10 -54 -6c-9 -126 -30 -371 -158 -374c-201 -5 -178 287 -177 302c-39 -63 -69 -166 -116 -308c-13 -15 -76 -3 -85 27c-53 188 37 557 102 723c91 -28 106 -64 101 -76c-43 -105 -116 -443 -126 -559c36 105 133 361 180 362c25 1 84 -22 81 -33
c-50 -213 -49 -355 26 -389c124 -56 146 267 151 332c-55 26 -87 110 -38 215l88 -50c-68 -189 37 -169 50 -66c15 -4 115 -34 109 -57c-76 -319 -35 -481 197 -355l9 -22c-278 -164 -398 34 -340 334z" />
    <glyph glyph-name="r_r" unicode="rr" horiz-adv-x="780" 
d="M138 393c-90 -39 -182 68 -113 217l88 -51c-68 -189 37 -169 50 -66c15 -4 115 -33 109 -57c-121 -512 141 -509 173 -42c-54 26 -86 111 -37 216l88 -51c-68 -189 37 -169 50 -66c14 -4 114 -33 109 -57c-76 -319 -35 -481 196 -355l9 -22c-277 -163 -397 34 -339 334
c-19 -8 -37 -10 -54 -6c-7 -89 -50 -381 -169 -387c-147 -7 -203 169 -160 393z" />
    <glyph glyph-name="o_r" unicode="or" horiz-adv-x="778" 
d="M339 430c-244 97 -283 -374 -154 -358c92 12 140 160 125 229c-6 1 -11 2 -18 3v0c-106 14 -47 129 17 102c31 -13 45 -41 49 -75c35 9 60 36 75 55c-48 32 -73 112 -27 210l88 -50c-68 -189 37 -169 50 -66c14 -4 114 -34 109 -57c-76 -319 -35 -481 196 -355l9 -22
c-277 -164 -397 34 -339 334c-19 -8 -37 -10 -55 -6c-18 -25 -48 -63 -105 -72c-1 -41 -12 -84 -21 -113c-33 -106 -107 -195 -217 -190c-159 7 -169 395 23 493c58 30 122 32 164 -13c12 -13 23 -30 31 -49z" />
    <glyph glyph-name="g_r" unicode="gr" horiz-adv-x="835" 
d="M217 428v0c-91 -37 -123 -291 -68 -318c112 -54 171 359 68 318zM575 393v0c-18 -8 -37 -10 -54 -6c-23 -31 -71 -66 -130 -48c-11 -130 -25 -264 -54 -391c-109 -429 -464 -77 -114 9c8 34 16 74 23 117c-37 -49 -87 -79 -147 -73c-141 15 -133 403 41 492
c52 26 106 25 142 -17c0 12 0 22 1 32c63 -14 119 -28 118 -41s-3 -51 -7 -102c39 -10 76 9 96 34c-49 32 -74 112 -28 210l88 -50c-68 -189 37 -169 50 -66c15 -4 115 -34 109 -58c-75 -318 -34 -480 197 -354l9 -22c-278 -164 -398 34 -340 334zM214 -76
c-101 -32 -119 -93 -102 -114c16 -21 65 -4 102 114z" />
    <glyph glyph-name="d_r" unicode="dr" horiz-adv-x="942" 
d="M217 428v0c-91 -36 -123 -290 -68 -317c113 -55 165 356 68 317zM683 393c-19 -8 -37 -10 -54 -6c-8 -101 -21 -366 -185 -370c-80 -2 -135 43 -162 120c-38 -83 -100 -144 -183 -135c-141 14 -133 402 41 491c53 27 110 26 145 -20c1 -1 2 -3 3 -4c23 107 57 222 83 289
c90 -29 104 -64 101 -77c-26 -99 -63 -217 -83 -330c-9 -56 -43 -304 71 -288c111 16 140 224 148 331c-55 26 -87 110 -38 215l88 -50c-68 -189 37 -169 50 -66c15 -4 115 -34 109 -57c-76 -319 -35 -481 196 -355l9 -22c-277 -164 -397 34 -339 334z" />
    <glyph glyph-name="q_r" unicode="qr" horiz-adv-x="853" 
d="M217 444v0c-91 -37 -123 -291 -68 -318c110 -53 170 358 68 318zM593 393c-18 -8 -37 -10 -54 -6c-24 -32 -72 -67 -133 -48c-20 -74 -42 -155 -56 -232c-32 -190 -10 -347 93 -342l5 -20c-172 -48 -236 119 -224 321c-34 -34 -76 -54 -125 -49c-141 15 -133 403 41 492
c53 27 110 25 145 -21c9 -12 17 -27 23 -43c8 26 17 49 24 69c91 -29 104 -64 101 -77c-6 -23 -13 -47 -20 -73c39 -9 75 11 94 35c-48 32 -73 112 -27 210l88 -50c-68 -189 37 -169 50 -66c15 -4 115 -33 109 -57c-76 -319 -35 -481 197 -355l9 -22
c-278 -164 -398 34 -340 334z" />
    <glyph glyph-name="c_r" unicode="cr" horiz-adv-x="776" 
d="M196 55c174 0 235 206 245 345c-55 26 -87 110 -38 215l88 -50c-68 -189 37 -169 50 -66c15 -4 115 -34 109 -57c-76 -319 -35 -481 197 -355l9 -22c-278 -164 -398 34 -340 334c-18 -8 -37 -10 -54 -6c-14 -181 -89 -411 -316 -392c-194 16 -192 376 -9 492
c57 35 127 34 180 5l-59 -96c-154 35 -229 -346 -62 -347z" />
    <glyph glyph-name="t_r" unicode="tr" horiz-adv-x="735" 
d="M421 386c-10 -134 -56 -327 -164 -372c-163 -69 -261 101 -235 319c5 46 16 95 28 144c-30 7 -49 13 -49 13l-1 28s23 -5 58 -10c17 64 36 123 52 165c90 -28 104 -63 101 -76c-9 -34 -19 -68 -28 -100c37 -1 76 1 110 8l2 -44c-38 -8 -82 -8 -123 -4
c-12 -48 -24 -95 -31 -146c-23 -146 -7 -239 54 -267c109 -48 195 217 205 350c-55 26 -87 110 -38 215l88 -50c-68 -189 37 -170 50 -66c15 -5 115 -34 109 -58c-76 -319 -35 -480 197 -354l9 -22c-278 -164 -398 34 -340 334c-18 -8 -37 -10 -54 -7z" />
    <glyph glyph-name="m_r" unicode="mr" horiz-adv-x="1082" 
d="M479 484c25 1 83 -22 81 -33c-39 -162 -47 -283 -16 -347c22 -44 54 -58 94 -24c72 63 105 247 109 314c-54 26 -86 110 -37 215l88 -50c-68 -189 37 -169 50 -66c14 -4 114 -34 109 -57c-76 -319 -35 -481 196 -355l9 -22c-277 -164 -397 34 -339 334
c-19 -8 -37 -10 -54 -6c-5 -63 -28 -212 -78 -302c-52 -93 -149 -105 -215 -21s-54 240 -54 251c-48 -78 -59 -139 -89 -223c-14 -38 -23 -75 -59 -35c-73 81 -60 247 -60 258c-39 -63 -69 -166 -116 -308c-8 -16 -76 -3 -84 27c-28 98 -12 323 33 468
c90 -28 113 -45 109 -57c-21 -51 -56 -209 -65 -323c36 105 132 361 179 362c26 1 84 -22 82 -33c-27 -113 -39 -206 -34 -274c44 120 120 306 161 307z" />
    <glyph glyph-name="n_r" unicode="nr" horiz-adv-x="851" 
d="M538 387c-10 -127 -12 -347 -135 -373c-211 -43 -189 286 -189 301c-39 -63 -69 -166 -116 -308c-17 -16 -76 -3 -84 27c-28 98 -12 323 32 468c91 -28 114 -45 110 -57c-21 -51 -56 -209 -65 -323c36 105 132 361 179 362c26 1 84 -22 82 -33c-50 -208 -50 -349 21 -387
c119 -63 139 273 143 330c-54 26 -86 110 -37 215l88 -50c-68 -189 37 -169 50 -66c14 -4 114 -34 109 -57c-76 -319 -35 -481 196 -355l9 -22c-277 -164 -397 34 -339 334c-19 -8 -37 -10 -54 -6z" />
    <glyph glyph-name="a_r" unicode="ar" horiz-adv-x="896" 
d="M217 427v0c-91 -36 -123 -290 -68 -317c113 -55 162 355 68 317zM636 393c-18 -8 -36 -10 -54 -6c-7 -96 -34 -267 -100 -334c-79 -80 -170 -6 -201 81c-38 -82 -100 -142 -182 -133c-141 14 -133 402 41 491c53 27 110 26 145 -20c1 -2 2 -3 3 -5c4 14 8 27 12 41
c90 -28 112 -45 109 -58c-121 -510 124 -460 152 -56c-55 26 -87 110 -37 215l87 -50c-68 -189 37 -169 50 -66c15 -4 115 -33 110 -57c-76 -319 -35 -481 196 -355l9 -22c-277 -164 -398 34 -340 334z" />
    <glyph glyph-name="i_r" unicode="ir" horiz-adv-x="671" 
d="M412 394v0c-19 -7 -37 -9 -55 -6c-9 -131 -14 -382 -178 -388c-173 -7 -222 218 -138 494c91 -28 112 -45 109 -58c-55 -230 -52 -379 44 -396c113 -5 134 241 142 355c-55 27 -86 111 -37 216l87 -51c-67 -188 38 -169 51 -65c14 -5 114 -34 109 -58
c-76 -319 -35 -480 196 -355l9 -22c-277 -163 -398 35 -339 334zM165 482c-145 39 -57 224 -57 224c90 -29 103 -64 100 -77c-10 -43 -31 -104 -43 -147z" />
    <glyph glyph-name="p_r" unicode="pr" horiz-adv-x="837" 
d="M276 439c-75 80 -205 -358 -81 -356c62 1 148 285 81 356v0zM577 393c-18 -8 -37 -10 -54 -7c-20 -26 -59 -56 -107 -52c7 -165 -109 -367 -212 -332c-44 15 -73 47 -90 88c-26 -164 -33 -325 -25 -348c4 -13 -78 6 -84 39c-21 107 28 614 82 767c46 -4 120 -26 114 -39
c-3 -7 -7 -20 -12 -36c14 15 29 27 44 35c52 27 104 4 140 -42c23 -29 36 -65 41 -104c32 -1 61 16 78 37c-49 32 -74 112 -28 210l88 -50c-68 -189 37 -169 50 -66c15 -5 115 -34 109 -58c-75 -319 -34 -480 197 -354l9 -22c-278 -164 -398 34 -340 334z" />
    <glyph glyph-name="l_r" unicode="lr" horiz-adv-x="682" 
d="M368 387c-9 -119 -62 -398 -205 -387c-129 10 -183 154 -155 351c18 127 71 315 107 405c90 -29 104 -64 100 -77c-25 -99 -67 -233 -87 -345c-76 -443 199 -319 219 60c-55 27 -87 111 -38 216l88 -51c-68 -188 37 -169 50 -65c15 -5 115 -34 109 -58
c-76 -319 -35 -480 196 -354l10 -23c-278 -163 -398 35 -340 335c-19 -8 -37 -10 -54 -7z" />
    <glyph glyph-name="w_r" unicode="wr" horiz-adv-x="950" 
d="M610 397v0v0zM331 123c20 88 104 328 148 387c0 0 7 2 18 0c18 0 40 -9 38 -27c-10 -86 24 -135 56 -72c-39 37 -54 111 -13 198l88 -50c-68 -189 37 -169 50 -66c15 -4 115 -34 109 -57c-76 -319 -35 -481 196 -355l9 -22c-277 -164 -397 34 -339 334
c-29 -12 -58 -10 -81 4c-60 -100 -115 4 -111 53c-60 -94 -125 -283 -148 -442c-10 -17 -76 -3 -88 27c-28 71 -40 209 -33 335c-46 -101 -89 -240 -107 -362c-9 -17 -76 -3 -88 27c-38 98 -46 323 -18 468c93 -28 119 -46 115 -58c-15 -50 -33 -208 -29 -322
c19 83 96 306 142 380c93 -28 119 -46 115 -58c-15 -50 -33 -208 -29 -322z" />
    <glyph glyph-name="C_r" unicode="Cr" horiz-adv-x="945" 
d="M588 409c-40 37 -57 111 -15 200l88 -50c-68 -189 37 -169 50 -66c14 -4 115 -34 109 -58c-76 -318 -35 -480 196 -354l9 -22c-277 -164 -397 34 -339 334c-25 -11 -49 -10 -70 -2c-36 -197 -165 -377 -364 -396c-333 -31 -326 542 -35 721c48 30 99 43 145 41
c229 -9 234 -354 -97 -273c255 32 259 225 141 224c-258 -5 -396 -711 -53 -643c149 30 214 195 235 344z" />
    <glyph glyph-name="D_r" unicode="Dr" horiz-adv-x="1125" 
d="M412 576v0c-11 -38 -76 -238 -94 -381c0 0 106 -31 219 -18c69 193 24 510 -241 493c-290 -19 -345 -318 -99 -432c2 17 6 54 8 65c18 106 71 262 107 336c90 -23 104 -53 100 -63zM865 393v0c-14 -6 -28 -9 -42 -8c-25 -113 -103 -173 -191 -203v0
c-44 -88 -116 -156 -215 -177c-142 -31 -212 70 -221 200c-338 167 -189 545 74 566c368 30 473 -328 372 -567v0c67 30 126 87 149 189c-55 26 -88 111 -38 216l87 -50c-68 -189 37 -169 51 -66c14 -4 114 -34 109 -57c-76 -319 -35 -481 196 -355l9 -22
c-277 -164 -398 34 -340 334zM530 159c-52 -7 -157 -10 -216 3c-3 -92 22 -155 110 -125c45 15 81 61 106 122z" />
    <glyph glyph-name="E_r" unicode="Er" horiz-adv-x="873" 
d="M613 393c-19 -8 -38 -10 -55 -6c2 -118 -100 -463 -419 -376c-196 54 -180 350 19 446c-174 153 20 384 223 304c73 -29 116 -151 -22 -164c55 76 61 151 -38 152c-144 1 -195 -188 9 -319c-166 -13 -304 -302 -127 -398c107 -58 335 117 316 373c-43 35 -62 112 -19 204
l88 -50c-68 -189 37 -169 50 -66c15 -4 115 -34 109 -57c-76 -319 -35 -481 196 -355l10 -22c-278 -164 -398 34 -340 334z" />
    <glyph glyph-name="G_r" unicode="Gr" horiz-adv-x="989" 
d="M218 68v0c157 -74 181 271 181 364c64 -14 120 -27 119 -40c-7 -126 -21 -259 -46 -384c87 86 167 264 163 398c-42 35 -62 111 -18 203l87 -50c-68 -189 37 -169 50 -66c15 -4 115 -34 109 -57c-75 -319 -34 -481 197 -355l9 -22c-277 -164 -398 34 -340 334
c-20 -9 -40 -10 -58 -6c4 -146 -110 -342 -207 -419v0c-1 -8 -3 -15 -5 -22c-108 -429 -463 -77 -113 9c12 50 22 106 30 164c-38 -64 -95 -131 -178 -124c-211 19 -249 347 -133 563c97 181 238 209 334 169c201 -83 82 -326 -142 -249c163 7 258 207 136 228
c-86 15 -177 -92 -209 -165c-57 -136 -89 -415 34 -473zM337 -78c-114 -36 -122 -109 -94 -120c21 -9 62 17 94 120z" />
    <glyph glyph-name="H_r" unicode="Hr" horiz-adv-x="1005" 
d="M500 180v0c3 -170 75 -155 166 -115c1 1 2 -15 2 -19c-185 -101 -299 -35 -288 186c2 27 3 44 8 79c-18 2 -82 21 -123 36c-12 -54 -53 -244 -67 -309c-7 -38 -81 -43 -139 -32c41 127 96 333 106 386c-180 97 -185 230 -141 302c46 75 182 87 237 11
c50 -70 37 -175 14 -310c41 -16 81 -28 119 -37c22 158 63 351 66 370c92 -28 124 -67 121 -79c0 0 -44 -168 -67 -317c112 -28 137 24 145 68c-48 32 -73 112 -27 209l88 -50c-68 -189 37 -169 50 -66c15 -4 115 -34 109 -57c-76 -319 -35 -481 197 -355l9 -22
c-278 -164 -398 34 -340 334c-21 -9 -42 -10 -61 -5c-18 -53 -69 -109 -176 -98c-6 -44 -8 -75 -8 -110zM175 434c39 221 -36 286 -91 269c-65 -19 -105 -150 91 -269z" />
    <glyph glyph-name="I_r" unicode="Ir" horiz-adv-x="792" 
d="M174 180v0c-1 -77 14 -119 39 -137c67 -49 199 263 216 372c-35 38 -49 110 -9 194l88 -50c-68 -189 37 -169 50 -66c15 -5 115 -34 109 -58c-76 -318 -35 -480 196 -354l9 -22c-277 -164 -397 34 -339 334c-24 -10 -47 -10 -68 -2c-26 -83 -150 -378 -254 -390
c-109 -13 -168 66 -156 231c5 61 27 184 27 184c-19 -1 -40 -1 -61 -1c-5 0 -16 68 -21 70c34 -7 64 -11 92 -12c25 97 47 176 89 243c147 173 332 -185 31 -279c-20 -89 -37 -187 -38 -257zM223 483c127 34 145 153 120 192c-22 33 -77 6 -120 -192z" />
    <glyph glyph-name="J_r" unicode="Jr" horiz-adv-x="870" 
d="M146 -75v0c18 58 28 89 41 149c-66 -46 -192 -182 -151 -253c20 -34 74 1 110 104zM610 393v0c-34 -15 -69 -8 -95 13c-32 -37 -93 -47 -146 -38c-43 -241 -93 -527 -209 -605c-61 -42 -124 -17 -148 28c-54 118 103 308 190 363c23 72 49 245 50 253
c-209 127 -86 429 110 327c75 -39 26 -246 15 -313c10 -10 91 -23 121 4c-29 40 -37 106 -1 184l88 -50c-68 -189 37 -169 50 -66c15 -4 115 -34 109 -58c-75 -318 -34 -480 197 -354l9 -22c-278 -164 -398 34 -340 334zM260 466c14 68 41 251 -24 246
c-75 -5 -98 -185 24 -246z" />
    <glyph glyph-name="M_r" unicode="Mr" horiz-adv-x="1303" 
d="M279 211v0v0zM1043 393v0c-15 -7 -31 -9 -46 -8c-6 -91 -104 -438 -265 -377c-63 24 -98 99 -95 223c2 74 9 138 25 237c-38 -38 -206 -301 -243 -197c-41 111 -66 216 -81 280c-15 -97 -29 -195 -48 -291c44 -15 54 -28 48 -76c-20 11 -40 20 -59 27
c-12 -52 -26 -100 -42 -132c-134 -255 -418 156 -69 194c29 139 48 287 62 428c2 19 135 56 140 15c11 -90 55 -302 81 -365c9 -24 211 252 248 366c12 35 131 -48 126 -68c0 0 -69 -325 -63 -483c14 -326 191 43 203 229c-53 29 -82 112 -34 214l87 -50
c-68 -189 37 -169 51 -66c14 -4 114 -34 109 -57c-76 -319 -35 -481 196 -355l9 -22c-277 -164 -398 34 -340 334zM158 232c-180 -6 -151 -157 -95 -166c52 -8 86 129 95 166z" />
    <glyph glyph-name="P_r" unicode="Pr" horiz-adv-x="1103" 
d="M843 393v0c-21 -9 -42 -10 -61 -5c-47 -182 -248 -300 -388 -109c-17 -1 -34 -1 -51 -1c-10 -45 -19 -86 -28 -116c-60 -202 -181 -213 -315 -82c1 4 16 17 17 16c72 -66 112 -93 168 59c14 37 27 90 39 148c-66 34 -40 92 19 102c22 132 36 257 36 257
c1 12 44 36 139 31c-3 -15 -26 -165 -55 -315c23 -9 56 -41 57 -41c184 67 199 373 -58 408c-155 21 -266 -146 -198 -296c-51 12 -71 48 -73 58c-46 219 330 378 517 202c110 -103 71 -302 -82 -391c-22 -12 -46 -22 -70 -28c133 -152 269 -51 304 108
c-50 31 -76 112 -29 211l87 -50c-68 -189 37 -169 50 -66c15 -4 115 -34 110 -57c-76 -319 -35 -481 196 -355l9 -22c-277 -164 -398 34 -340 334zM228 324v0c4 20 8 39 11 59c-36 -11 -52 -43 -11 -59zM367 322c-2 2 -3 5 -5 7c-2 3 -4 7 -7 10c-1 -7 -2 -14 -3 -20z" />
    <glyph glyph-name="S_r" unicode="Sr" horiz-adv-x="824" 
d="M298 739v0c-139 -5 -133 -160 -83 -245c47 -81 115 -120 151 -210c0 -1 4 -11 4 -11c56 10 104 55 120 120c-56 26 -88 111 -39 216l88 -50c-68 -189 37 -169 50 -66c15 -4 115 -34 109 -58c-76 -318 -35 -480 197 -354l9 -22c-278 -164 -398 34 -340 334
c-15 -6 -29 -9 -43 -8c-21 -66 -72 -125 -146 -130c39 -138 -40 -247 -185 -256c-218 -15 -303 286 47 270c-21 31 -55 57 -80 88c-66 83 -106 186 -72 291c28 86 109 124 195 121c190 -6 180 -314 -62 -217c187 50 181 191 80 187zM247 251c-275 -4 -223 -271 -73 -221
c80 27 117 135 73 221z" />
    <glyph glyph-name="T_r" unicode="Tr" horiz-adv-x="883" 
d="M355 180c5 -331 156 43 182 220c-48 31 -73 111 -27 209l88 -50c-68 -189 37 -169 50 -66c15 -4 115 -34 109 -58c-76 -318 -35 -480 196 -354l10 -22c-278 -164 -398 34 -340 334c-18 -8 -36 -10 -53 -7c-22 -137 -137 -429 -247 -382c-61 25 -94 106 -89 228
c6 122 78 377 102 432c-100 33 -191 74 -253 28c-98 -72 -25 -230 168 -233c12 0 -32 -69 -103 -56c-176 31 -207 272 -27 332c185 61 374 -102 626 -17c-17 -34 -40 -76 -74 -90c-70 -30 -167 -5 -241 13c-12 -49 -80 -317 -77 -461z" />
    <glyph glyph-name="U_r" unicode="Ur" horiz-adv-x="1082" 
d="M823 393v0c-13 -5 -25 -8 -37 -8c-12 -110 -117 -397 -225 -384c-61 7 -101 51 -113 132c-140 -192 -359 -195 -337 99c4 55 15 124 30 200c-102 21 -140 100 -140 165c-1 193 350 265 279 -105c0 0 42 15 50 16c6 2 12 -70 -64 -79c-20 -90 -35 -178 -36 -249
c-3 -302 196 -66 220 98c12 79 83 428 88 450c90 -28 122 -67 118 -79c0 0 -90 -310 -92 -469c0 -68 11 -108 31 -129c29 -31 135 101 157 340c-57 24 -93 110 -42 218l87 -50c-67 -189 38 -169 51 -66c14 -4 114 -34 109 -57c-76 -319 -35 -481 196 -355l9 -22
c-277 -164 -398 34 -339 334zM143 494c9 -2 8 -2 8 -2c35 207 -27 240 -74 209c-54 -37 -89 -161 66 -207z" />
    <glyph glyph-name="Y_r" unicode="Yr" horiz-adv-x="976" 
d="M215 71v0c137 -44 195 542 196 636c63 -14 119 -27 118 -40c-11 -216 -46 -473 -95 -689c175 54 197 271 202 418c-52 29 -80 112 -33 213l88 -50c-68 -189 37 -169 50 -66c15 -4 115 -34 109 -57c-75 -319 -34 -481 197 -355l9 -22c-278 -164 -398 34 -340 334
c-15 -7 -31 -9 -46 -8c-11 -152 -62 -380 -245 -442l-2 -9c-112 -410 -457 -64 -110 21c12 50 36 188 43 246c-12 -79 -78 -210 -161 -203c-207 19 -102 413 -98 456c-123 88 -112 213 -58 262c66 61 212 55 216 -9c3 -58 -22 -150 -36 -233c0 0 56 -16 75 -21
c-27 -58 -80 -37 -85 -36c-28 -104 -49 -328 6 -346zM108 515v0c0 -2 23 122 24 125c24 100 -35 100 -76 54c-38 -41 -33 -132 52 -179zM304 -78c-102 -32 -119 -94 -101 -115c16 -20 64 -2 101 115z" />
    <glyph glyph-name="t_t" unicode="tt" horiz-adv-x="553" 
d="M623 81v0l10 -22c-127 -74 -222 -73 -281 -22c-231 -113 -339 45 -309 297c8 61 22 126 40 191c-63 20 -82 37 -82 37l-1 32s30 -18 92 -39c12 41 26 81 39 119c91 -29 104 -64 101 -77c-6 -24 -13 -48 -20 -73c32 -6 68 -11 107 -15c18 63 37 123 52 165
c91 -28 104 -64 101 -76c-9 -35 -17 -62 -26 -95c0 0 59 4 121 26l5 -32c-60 -27 -136 -26 -136 -26c-12 -48 -26 -108 -34 -159c-35 -234 23 -339 221 -231zM204 495c-17 -61 -32 -121 -42 -184c-32 -213 13 -319 171 -254c-47 58 -64 157 -49 277c5 45 15 95 27 144
c-41 5 -76 11 -107 17z" />
    <glyph glyph-name="a_z" unicode="az" horiz-adv-x="834" 
d="M707 -56v0c-101 -28 -122 -85 -109 -116c16 -39 85 -37 109 116zM280 133v0c-37 -81 -100 -141 -182 -132c-140 14 -132 402 42 491c53 27 109 26 144 -20l4 -5c3 14 7 27 11 41c91 -29 112 -45 109 -58c-120 -506 120 -460 152 -68c-60 35 -87 128 -37 210l88 -51
c-74 -193 95 -123 103 -64c15 -4 89 -49 71 -63c0 0 -97 -147 -92 -151c90 -86 137 -178 130 -303c-15 -133 -119 -227 -202 -211c-88 17 -119 193 90 232c-3 133 -132 193 -131 197c14 50 90 151 114 217c-41 -28 -81 -33 -113 -22c-9 -98 -37 -256 -100 -320
c-79 -80 -169 -6 -201 80zM217 427c-91 -36 -123 -290 -68 -317c112 -55 161 355 68 317z" />
    <glyph glyph-name="b_z" unicode="bz" horiz-adv-x="757" 
d="M631 -56v0c-98 -27 -121 -81 -111 -112c13 -43 85 -46 111 112zM390 367v0c29 -2 56 12 73 30c-45 42 -61 123 -16 195l87 -51c-74 -193 96 -123 104 -64c14 -4 88 -49 70 -63c0 0 -96 -147 -92 -151c90 -86 138 -179 130 -303c-14 -133 -119 -227 -201 -211
c-89 17 -119 193 90 232c-4 133 -132 193 -131 197c13 50 90 151 113 217c-47 -33 -93 -34 -128 -16c-22 -23 -55 -44 -96 -40c5 -144 -82 -316 -173 -334c-216 -44 -234 210 -212 368c19 127 67 300 102 389c91 -28 104 -64 101 -76c-18 -70 -42 -148 -61 -227
c18 24 38 43 60 54c51 27 103 4 140 -42c22 -29 35 -65 40 -104zM252 444c-75 80 -205 -358 -80 -356c61 1 148 285 80 356z" />
    <glyph glyph-name="c_z" unicode="cz" horiz-adv-x="714" 
d="M588 -56v0c-122 -34 -127 -109 -98 -131c25 -20 77 3 98 131zM137 493c57 35 127 34 180 5l-59 -96c-154 35 -229 -346 -62 -347c167 0 230 190 243 328c-59 35 -86 127 -35 209l87 -51c-74 -193 96 -123 104 -64c14 -4 89 -49 70 -63c0 0 -96 -147 -92 -151
c90 -86 138 -178 130 -303c-14 -133 -119 -227 -201 -211c-89 17 -119 193 90 232c-4 133 -132 193 -131 197c13 50 90 151 114 217c-42 -28 -82 -33 -115 -22c-17 -177 -95 -390 -314 -372c-194 16 -192 376 -9 492z" />
    <glyph glyph-name="d_z" unicode="dz" horiz-adv-x="873" 
d="M217 427v0c-91 -36 -123 -290 -68 -317c112 -55 165 356 68 317zM746 -56v0c-131 -37 -127 -121 -90 -135c27 -11 72 18 90 135zM862 -40c-15 -133 -119 -227 -202 -211c-88 17 -119 193 90 232c-3 133 -132 193 -131 197c14 50 90 151 114 217c-38 -26 -75 -32 -106 -24
c-8 -110 -27 -351 -184 -355c-80 -2 -134 43 -162 120c-37 -83 -100 -144 -183 -135c-140 14 -132 402 41 491c53 27 110 26 145 -20l3 -4c23 107 57 221 83 289c91 -29 104 -64 101 -77c-26 -99 -63 -217 -82 -330c-10 -56 -44 -304 70 -288c107 15 138 206 147 316
c-65 32 -96 128 -44 214l88 -51c-74 -193 95 -123 103 -64c15 -4 89 -49 71 -63c0 0 -97 -147 -92 -151c90 -86 137 -178 130 -303z" />
    <glyph glyph-name="e_z" unicode="ez" horiz-adv-x="704" 
d="M578 -56v0c-120 -34 -127 -107 -100 -130c25 -21 79 -1 100 130zM140 501v0c164 77 305 -78 -33 -330c18 -245 289 -114 319 214c-57 36 -82 126 -32 207l87 -51c-74 -193 96 -123 104 -64c14 -4 88 -49 70 -63c0 0 -96 -147 -92 -151c90 -86 138 -179 130 -303
c-14 -133 -119 -227 -201 -211c-89 17 -119 193 90 232c-4 133 -132 193 -131 197c13 50 90 151 113 217c-42 -29 -83 -33 -117 -21c-14 -142 -70 -331 -225 -368c-257 -62 -299 395 -82 495zM109 213c139 129 164 194 145 207c-26 16 -130 -62 -145 -207z" />
    <glyph glyph-name="f_z" unicode="fz" horiz-adv-x="777" 
d="M651 -46c-111 -32 -125 -96 -105 -124c21 -31 82 -19 105 124zM308 233c-9 -80 -18 -154 -35 -236c140 45 216 273 228 396c-59 36 -84 127 -34 208l88 -50c-75 -194 95 -124 103 -64c14 -5 89 -49 70 -64c0 0 -96 -146 -92 -151c90 -86 138 -178 130 -303
c-14 -133 -119 -227 -201 -211c-89 17 -119 193 90 233c-3 132 -132 193 -131 197c13 49 90 151 114 217c-43 -29 -83 -34 -116 -22c-20 -222 -131 -394 -259 -430c-109 -429 -461 -67 -111 20c19 74 30 160 39 252c-82 -7 -74 -7 -96 56c0 0 40 -21 99 -23
c7 76 -1 401 138 378c126 -21 74 -246 -11 -374c32 7 61 14 85 22c1 -12 1 -21 -5 -23c-31 -11 -59 -20 -93 -28zM312 277c80 134 74 307 54 301c-35 -9 -50 -259 -54 -301zM140 -70c-100 -32 -118 -93 -102 -114c16 -22 66 -5 102 114z" />
    <glyph glyph-name="g_z" unicode="gz" horiz-adv-x="776" 
d="M649 -52v0c-121 -34 -126 -109 -98 -131c26 -20 78 2 98 131zM140 496v0c51 27 106 26 142 -17v32c64 -13 120 -27 119 -40s-3 -51 -8 -102c37 -10 72 6 92 29c-48 41 -65 124 -20 198l88 -51c-74 -193 95 -123 103 -64c15 -4 89 -49 71 -63c0 0 -96 -147 -92 -151
c90 -86 137 -178 130 -303c-15 -133 -119 -227 -201 -211c-89 17 -120 193 89 232c-3 133 -132 193 -131 197c14 50 91 151 114 217c-45 -31 -89 -34 -123 -18c-26 -28 -69 -54 -122 -39c-11 -130 -26 -263 -55 -390c-108 -430 -461 -69 -111 18c9 33 14 65 21 108
c-37 -49 -87 -80 -147 -73c-141 14 -133 402 41 491zM149 114v0c112 -55 170 358 68 317c-91 -36 -123 -290 -68 -317zM214 -72c-98 -31 -117 -89 -104 -112c15 -25 66 -11 104 112z" />
    <glyph glyph-name="h_z" unicode="hz" horiz-adv-x="799" 
d="M672 -56v0c-139 -39 -126 -131 -84 -137c27 -4 67 29 84 137zM274 484c25 0 83 -23 81 -33c-51 -213 -49 -356 26 -390c116 -52 143 230 149 318c-64 32 -94 128 -42 213l88 -51c-74 -193 95 -123 103 -64c15 -4 89 -49 71 -63c0 0 -96 -147 -92 -151
c90 -87 137 -179 130 -303c-15 -133 -119 -227 -201 -211c-89 16 -120 193 89 232c-3 133 -132 193 -131 197c14 50 90 151 114 217c-39 -27 -76 -32 -108 -24c-9 -129 -33 -355 -157 -358c-201 -6 -177 287 -177 301c-38 -63 -69 -165 -116 -307c-12 -16 -76 -4 -84 26
c-53 188 36 558 102 724c90 -29 106 -65 101 -77c-43 -104 -117 -442 -126 -558c36 104 133 360 180 362z" />
    <glyph glyph-name="i_z" unicode="iz" horiz-adv-x="610" 
d="M165 481c-146 39 -58 224 -58 224c91 -28 104 -64 101 -76c-10 -44 -31 -105 -43 -148zM469 263c89 -86 137 -178 130 -303c-15 -133 -120 -227 -202 -211c-89 17 -119 193 90 232c-3 133 -132 193 -131 197c13 50 90 151 114 217c-41 -28 -81 -33 -114 -22
c-9 -134 -19 -367 -177 -373c-174 -7 -222 217 -138 494c90 -29 112 -45 109 -58c-55 -231 -52 -380 43 -397c110 -4 133 225 142 343c-60 36 -87 128 -36 210l88 -51c-74 -193 95 -123 103 -64c15 -4 89 -49 71 -63c0 0 -97 -147 -92 -151zM387 -189c26 -16 76 8 96 133
c-125 -35 -127 -113 -96 -133z" />
    <glyph glyph-name="j_z" unicode="jz" horiz-adv-x="706" 
d="M579 -52c-106 -30 -124 -90 -107 -120c19 -35 83 -27 107 120zM330 505c-149 18 -88 213 -88 213c93 -15 112 -48 110 -61c-4 -45 -16 -108 -22 -152zM209 486c64 -13 119 -27 119 -40c-1 -11 -3 -39 -6 -76c37 -11 73 4 94 27c-49 41 -67 124 -21 199l88 -51
c-74 -193 95 -123 103 -64c14 -4 89 -49 70 -63c0 0 -96 -147 -92 -151c90 -86 138 -178 131 -303c-15 -133 -120 -227 -202 -211c-89 17 -119 193 90 232c-3 133 -132 193 -131 197c13 50 90 151 114 217c-45 -31 -88 -34 -122 -19c-26 -28 -71 -54 -124 -36
c-11 -122 -24 -276 -56 -393c-109 -430 -463 -78 -113 9c39 152 57 421 58 526zM142 -73c-114 -36 -122 -109 -94 -121c20 -9 62 17 94 121z" />
    <glyph glyph-name="k_z" unicode="kz" horiz-adv-x="770" 
d="M643 -56v0c-112 -31 -125 -97 -104 -125c22 -29 82 -15 104 125zM274 484c25 1 34 -1 47 -1c0 0 -66 -75 -103 -160c-8 -88 28 -195 89 -243c111 -85 178 214 188 302c-60 36 -86 128 -36 210l88 -51c-74 -193 95 -123 103 -64c15 -4 89 -49 71 -63
c0 0 -97 -147 -92 -151c90 -86 137 -179 130 -303c-15 -133 -119 -227 -202 -211c-88 17 -119 193 90 232c-3 133 -132 193 -131 197c14 50 90 151 114 217c-41 -28 -81 -33 -114 -22c-7 -80 -41 -356 -180 -362c-106 -5 -156 69 -184 142c-16 -44 -33 -93 -50 -146
c-6 -17 -76 -3 -85 27c-53 188 37 557 102 723c91 -28 106 -64 101 -76c-43 -104 -117 -443 -126 -559c36 105 133 361 180 362z" />
    <glyph glyph-name="l_z" unicode="lz" horiz-adv-x="624" 
d="M497 -55v0c-113 -32 -125 -99 -104 -126c23 -28 82 -14 104 126zM8 351c18 127 70 316 105 405c91 -28 105 -64 101 -76c-26 -100 -67 -234 -86 -346c-76 -439 194 -321 217 51c-57 37 -81 127 -32 207l88 -50c-74 -194 95 -124 103 -64c15 -5 89 -49 71 -64
c0 0 -97 -146 -92 -151c90 -86 137 -178 130 -303c-15 -133 -119 -227 -202 -211c-88 17 -119 193 90 233c-3 132 -132 193 -131 197c14 49 90 151 114 217c-43 -30 -84 -34 -118 -21c-11 -125 -66 -385 -203 -375c-130 10 -184 154 -155 351z" />
    <glyph glyph-name="m_z" unicode="mz" horiz-adv-x="1019" 
d="M892 -56v0c-116 -33 -126 -103 -101 -128c24 -25 80 -7 101 128zM544 104c22 -45 54 -58 94 -24c68 59 101 226 108 301c-61 35 -89 128 -38 211l88 -51c-74 -193 95 -123 103 -64c15 -4 89 -49 71 -63c0 0 -96 -147 -92 -151c90 -86 137 -179 130 -303
c-15 -133 -119 -227 -201 -211c-89 16 -120 193 89 232c-3 133 -132 193 -131 197c14 50 90 151 114 217c-40 -28 -79 -33 -112 -23c-6 -69 -30 -203 -76 -287c-52 -93 -149 -105 -215 -21s-54 240 -54 251c-48 -79 -59 -139 -89 -223c-14 -39 -23 -75 -59 -36
c-73 82 -60 248 -60 259c-39 -63 -69 -166 -116 -308c-8 -16 -76 -3 -84 27c-28 98 -12 323 33 468c90 -28 113 -45 109 -57c-21 -51 -56 -209 -65 -323c36 105 132 361 179 362c26 1 84 -22 82 -33c-27 -113 -39 -206 -34 -274c44 120 120 306 161 307c25 1 83 -22 81 -33
c-39 -162 -47 -283 -16 -347z" />
    <glyph glyph-name="n_z" unicode="nz" horiz-adv-x="788" 
d="M661 -56v0c-117 -33 -126 -103 -101 -128c24 -25 80 -7 101 128zM271 484c25 0 83 -22 81 -33c-50 -209 -49 -350 22 -387c111 -60 136 234 142 317c-62 34 -90 127 -39 211l88 -51c-74 -193 95 -123 103 -64c15 -5 89 -49 71 -64c0 0 -97 -146 -92 -150
c90 -87 137 -179 130 -304c-15 -133 -119 -226 -202 -211c-88 17 -119 194 90 233c-3 133 -132 193 -131 197c14 50 90 151 114 217c-40 -28 -79 -33 -111 -23c-9 -128 -15 -333 -134 -358c-210 -44 -189 286 -189 300c-38 -62 -69 -165 -115 -307c-18 -16 -77 -4 -85 26
c-28 99 -11 324 33 469c90 -28 114 -46 109 -58c-21 -50 -56 -208 -65 -322c36 104 133 360 180 362z" />
    <glyph glyph-name="o_z" unicode="oz" horiz-adv-x="723" 
d="M597 -68c-105 -29 -123 -88 -108 -118c18 -37 84 -31 108 118zM712 -52c-14 -133 -119 -227 -201 -211c-89 17 -119 193 90 233c-4 132 -132 192 -131 196c13 50 90 152 113 217c-46 -32 -91 -34 -126 -17c-19 -24 -48 -55 -98 -63c-2 -41 -13 -84 -22 -113
c-33 -106 -107 -195 -217 -190c-158 7 -169 395 23 493c58 30 122 32 164 -13c13 -13 23 -30 31 -49c-244 97 -283 -374 -154 -358c92 12 140 160 125 229c-5 1 -11 2 -17 3c-106 14 -48 129 16 102c32 -13 45 -41 49 -75c34 8 58 33 73 52c-46 42 -62 123 -17 196l87 -50
c-74 -194 96 -124 104 -65c14 -4 89 -49 70 -63c0 0 -96 -147 -92 -151c90 -86 138 -178 130 -303z" />
    <glyph glyph-name="p_z" unicode="pz" horiz-adv-x="783" 
d="M276 441c-75 80 -205 -359 -81 -356c62 1 148 284 81 356zM656 -56c-120 -34 -126 -107 -99 -130c25 -22 78 -1 99 130zM772 -41c-15 -133 -119 -226 -202 -211c-88 17 -119 194 90 233c-3 133 -132 193 -131 197c14 50 90 151 114 217c-47 -33 -93 -34 -128 -17
c-22 -23 -56 -46 -99 -42c7 -166 -109 -368 -212 -332c-44 15 -73 47 -90 88c-26 -164 -33 -325 -25 -349c4 -13 -78 7 -84 39c-21 107 28 615 82 767c46 -4 120 -26 114 -38c-3 -8 -7 -20 -12 -37c14 15 29 27 44 35c52 27 104 5 140 -42c23 -29 36 -65 41 -103
c30 -2 57 13 74 33c-45 42 -60 122 -16 195l88 -51c-74 -193 95 -123 103 -64c15 -5 89 -49 71 -64c0 0 -96 -146 -92 -150c90 -87 137 -179 130 -304z" />
    <glyph glyph-name="q_z" unicode="qz" horiz-adv-x="781" 
d="M216 443c-91 -36 -123 -291 -68 -317c110 -54 170 358 68 317zM654 -40c-109 -31 -124 -94 -106 -122c21 -33 83 -23 106 122zM770 -25c-15 -132 -119 -226 -202 -211c-88 17 -119 194 90 233c-3 133 -132 193 -131 197c14 50 90 151 114 217c-37 -26 -73 -32 -103 -25
c-24 -31 -72 -66 -132 -47c-21 -75 -43 -155 -56 -233c-33 -190 -11 -347 92 -341l5 -21c-172 -48 -236 120 -224 321c-34 -34 -76 -54 -125 -49c-140 15 -133 403 41 492c53 27 110 26 145 -21c9 -12 17 -26 23 -43c8 26 17 50 24 69c91 -28 104 -64 101 -76
c-6 -24 -13 -48 -20 -73c39 -9 75 10 94 34c-60 36 -86 128 -36 210l88 -51c-74 -193 95 -123 103 -64c15 -4 89 -49 71 -63c0 0 -97 -147 -92 -151c90 -87 137 -179 130 -304z" />
    <glyph glyph-name="r_z" unicode="rz" horiz-adv-x="716" 
d="M589 -56v0c-119 -33 -127 -106 -100 -130c25 -21 79 -1 100 130zM138 393c-90 -39 -183 68 -113 216l87 -50c-67 -189 38 -169 51 -66c14 -4 114 -33 109 -57c-121 -507 135 -509 172 -55c-62 34 -90 128 -39 211l88 -51c-74 -193 95 -123 103 -64c15 -4 89 -49 71 -63
c0 0 -97 -147 -92 -151c89 -86 137 -178 130 -303c-15 -133 -120 -227 -202 -211c-88 17 -119 193 90 232c-3 133 -132 193 -131 197c13 50 90 152 114 217c-40 -27 -79 -33 -111 -23c-10 -102 -54 -366 -168 -372c-146 -7 -203 169 -159 393z" />
    <glyph glyph-name="t_z" unicode="tz" horiz-adv-x="684" 
d="M558 -54v0c-121 -34 -127 -109 -99 -131c26 -20 78 1 99 131zM399 391c-52 39 -73 125 -25 202l87 -50c-74 -194 96 -124 104 -64c14 -5 89 -49 70 -64c0 0 -96 -146 -92 -151c90 -86 138 -178 130 -303c-14 -133 -119 -227 -201 -211c-89 17 -119 193 90 233
c-4 132 -132 193 -131 197c13 49 90 151 114 217c-46 -32 -90 -34 -125 -19c-11 -134 -58 -318 -163 -363c-163 -69 -261 101 -235 320c5 45 16 95 28 144c-30 7 -49 13 -49 13l-1 28s23 -5 58 -11c17 64 36 124 52 166c90 -28 104 -64 101 -76c-9 -35 -19 -68 -28 -101
c37 -1 76 1 110 9l2 -44c-38 -9 -82 -9 -123 -5c-12 -47 -24 -95 -31 -145c-23 -147 -7 -240 54 -267c108 -48 194 211 204 345z" />
    <glyph glyph-name="u_z" unicode="uz" horiz-adv-x="827" 
d="M700 -50v0c-123 -34 -127 -111 -97 -132c26 -18 77 5 97 132zM548 391c-57 37 -81 127 -32 207l88 -51c-74 -193 95 -123 103 -64c15 -4 89 -49 71 -63c0 0 -97 -147 -92 -151c90 -86 137 -178 130 -303c-15 -133 -119 -227 -202 -211c-88 17 -119 193 90 232
c-3 133 -132 193 -131 197c14 50 90 151 114 217c-43 -29 -85 -33 -118 -21c-9 -122 -17 -361 -151 -359c-105 1 -180 96 -172 267c-102 -523 -337 -266 -208 228c91 -29 113 -46 109 -58c-49 -181 -41 -362 -5 -353c47 13 103 331 127 410c90 -29 112 -45 109 -58
c-48 -199 -49 -337 13 -382c127 -92 152 243 157 316z" />
    <glyph glyph-name="v_z" unicode="vz" horiz-adv-x="673" 
d="M95 122v0c26 88 125 328 172 387c21 5 53 -1 50 -26c-10 -83 22 -132 53 -77c-39 44 -49 119 -8 186l88 -51c-74 -193 95 -123 103 -64c15 -4 89 -49 71 -63c0 0 -96 -147 -92 -151c90 -86 137 -178 130 -303c-15 -133 -119 -227 -201 -211c-89 17 -120 193 89 232
c-3 133 -132 193 -131 197c14 50 90 151 114 217c-56 -38 -109 -33 -146 -5c-55 -84 -106 5 -107 54c-64 -95 -139 -281 -172 -437c-9 -17 -76 -3 -86 27c-32 98 -27 323 10 468c92 -28 117 -46 112 -57c-18 -51 -45 -209 -49 -323zM546 -56c-115 -32 -126 -101 -102 -127
s81 -9 102 127z" />
    <glyph glyph-name="w_z" unicode="wz" horiz-adv-x="888" 
d="M331 122v0c21 89 105 328 149 387c20 5 55 0 52 -26c-10 -83 22 -131 53 -76c-39 44 -49 118 -8 185l88 -50c-74 -194 95 -124 103 -64c15 -5 89 -49 71 -64c0 0 -97 -146 -92 -151c90 -86 137 -178 130 -303c-15 -133 -119 -227 -202 -211c-88 17 -119 193 90 233
c-3 132 -132 193 -131 197c14 49 90 151 114 217c-56 -39 -109 -34 -146 -6c-55 -83 -105 2 -107 52c-58 -96 -120 -280 -144 -435c-9 -16 -76 -3 -87 27c-28 71 -40 210 -34 336c-45 -101 -88 -241 -107 -363c-8 -16 -75 -3 -87 27c-39 98 -47 324 -19 468
c94 -28 119 -45 116 -57c-16 -50 -33 -208 -30 -323c20 84 97 306 142 380c94 -28 119 -45 116 -57c-16 -50 -33 -208 -30 -323zM761 -55c-114 -32 -126 -100 -103 -127s81 -12 103 127z" />
    <glyph glyph-name="y_z" unicode="yz" horiz-adv-x="741" 
d="M614 -52v0c-111 -31 -125 -96 -105 -124c22 -30 82 -17 105 124zM236 486v0c0 13 119 -30 118 -40c0 -11 -2 -38 -5 -75c40 -13 78 4 99 29c-47 41 -63 123 -18 196l88 -51c-74 -193 95 -123 103 -64c14 -4 89 -49 70 -63c0 0 -96 -147 -92 -151
c90 -86 138 -178 131 -303c-15 -133 -120 -227 -202 -211c-89 17 -119 193 90 232c-3 133 -132 193 -131 197c13 50 90 151 114 217c-47 -32 -91 -34 -126 -17c-26 -29 -72 -57 -128 -37c-13 -141 -36 -421 -123 -534c-137 -177 -339 94 -44 170c14 56 24 121 33 191
c-109 -361 -293 -92 -174 360c90 -28 112 -45 109 -57c-50 -181 -47 -381 -10 -371c38 10 92 240 98 382zM169 -60c-113 -36 -122 -109 -95 -121c21 -9 63 17 95 121z" />
    <glyph glyph-name="B_z" unicode="Bz" horiz-adv-x="1001" 
d="M860 254c90 -86 138 -178 130 -303c-14 -133 -119 -227 -201 -211c-89 17 -119 193 90 232c-4 133 -132 193 -131 197c13 50 90 151 113 217c-37 -25 -73 -32 -103 -25c-19 -32 -47 -67 -81 -97v0c3 -27 -3 -60 -23 -101c-88 -179 -422 -271 -446 41
c-341 168 -224 540 74 566c294 26 366 -148 181 -398c37 7 161 -1 202 -73v1c24 23 44 51 57 77c-56 37 -80 126 -31 206l87 -51c-74 -193 96 -123 104 -64c14 -4 89 -49 70 -63c0 0 -96 -147 -92 -151zM217 302c18 105 72 262 107 336c90 -24 104 -53 101 -64
c-12 -37 -83 -233 -96 -383c96 -17 184 7 254 46c-19 33 -73 53 -180 38c-25 12 -23 47 -9 66c159 219 147 331 -35 330c-320 -1 -427 -326 -150 -433c2 17 6 52 8 64zM436 36c80 26 154 107 154 169c-68 -36 -183 -52 -265 -33c-2 -103 23 -166 111 -136zM772 -192
c24 -26 81 -9 103 127c-116 -32 -126 -101 -103 -127z" />
    <glyph glyph-name="C_z" unicode="Cz" horiz-adv-x="877" 
d="M750 -62v0c-125 -36 -127 -114 -96 -133c27 -17 76 8 96 133zM585 388c-47 42 -64 124 -19 198l88 -51c-74 -193 95 -123 103 -64c14 -5 89 -49 70 -64c0 0 -96 -146 -92 -151c90 -86 138 -178 131 -303c-15 -133 -120 -227 -202 -211c-89 17 -119 193 90 233
c-3 132 -132 193 -131 197c13 50 90 151 114 217c-46 -32 -90 -34 -125 -18c-42 -189 -168 -356 -359 -374c-333 -31 -327 542 -36 721c49 30 99 43 146 41c229 -9 233 -354 -97 -272c255 31 258 225 141 223c-258 -5 -396 -711 -53 -643c141 29 207 179 231 321z" />
    <glyph glyph-name="D_z" unicode="Dz" horiz-adv-x="1059" 
d="M412 575v0c-12 -38 -76 -238 -94 -382c0 0 106 -31 219 -18c68 194 24 511 -241 493c-291 -18 -345 -317 -99 -431c2 17 6 54 8 65c18 106 71 262 106 336c91 -24 105 -53 101 -63zM933 -66v0c-122 -34 -127 -109 -98 -131c26 -19 77 3 98 131zM1048 -50v0
c-14 -133 -119 -227 -201 -211c-89 17 -119 193 90 232c-4 133 -132 193 -131 197c13 50 90 152 114 217c-37 -25 -73 -32 -103 -25c-30 -98 -104 -151 -186 -179v0c-43 -88 -115 -156 -214 -177c-142 -31 -212 69 -221 200c-338 167 -189 545 74 566
c368 29 473 -329 371 -567h1c63 28 118 79 144 169c-61 35 -88 127 -37 210l87 -51c-74 -193 96 -123 104 -64c14 -4 89 -49 70 -63c0 0 -96 -147 -92 -151c90 -86 138 -178 130 -303zM530 158c-53 -7 -157 -11 -216 3c-4 -92 22 -155 110 -125c45 15 81 61 106 122z" />
    <glyph glyph-name="E_z" unicode="Ez" horiz-adv-x="799" 
d="M672 -64v0c-114 -32 -125 -100 -103 -126c23 -27 81 -12 103 126zM557 362c-11 -135 -120 -431 -417 -350c-197 53 -181 349 18 445c-174 154 20 385 223 304c73 -29 116 -150 -22 -163c55 76 61 151 -38 152c-144 1 -194 -188 9 -320c-166 -12 -304 -301 -127 -397
c103 -56 318 103 318 344c-58 36 -82 126 -33 207l88 -51c-74 -193 95 -123 103 -64c15 -4 89 -49 71 -63c0 0 -97 -147 -92 -151c90 -86 137 -179 130 -303c-15 -133 -119 -227 -202 -211c-88 17 -119 193 90 232c-3 133 -132 193 -131 197c14 50 90 151 114 217
c-36 -25 -72 -32 -102 -25z" />
    <glyph glyph-name="G_z" unicode="Gz" horiz-adv-x="920" 
d="M793 -61v0c-132 -37 -126 -122 -89 -136c27 -9 71 20 89 136zM218 72v0c157 -74 181 270 182 364c63 -14 119 -27 118 -40c-6 -126 -21 -259 -45 -384c81 81 157 242 162 372c-52 39 -73 126 -26 203l88 -51c-74 -193 95 -123 103 -64c15 -4 89 -49 71 -63
c0 0 -96 -147 -92 -151c90 -86 138 -178 130 -303c-15 -133 -119 -227 -201 -211c-89 17 -120 193 90 232c-4 133 -133 193 -132 197c14 50 91 151 114 217c-39 -27 -77 -32 -109 -24c-8 -143 -115 -322 -207 -395v0c-1 -7 -3 -14 -4 -21c-109 -429 -464 -78 -114 9
c13 50 23 106 30 164c-37 -65 -94 -132 -177 -124c-212 19 -249 346 -134 562c98 181 239 209 334 170c201 -84 82 -326 -142 -249c163 6 258 207 136 228c-85 14 -177 -92 -208 -166c-58 -135 -90 -414 33 -472zM337 -74c-121 -38 -122 -119 -88 -122c22 -2 59 28 88 122z
" />
    <glyph glyph-name="H_z" unicode="Hz" horiz-adv-x="933" 
d="M807 -67v0c-128 -36 -128 -117 -94 -134c27 -14 74 12 94 134zM500 177v0c2 -170 74 -155 165 -115c1 1 2 -15 2 -19c-185 -101 -298 -35 -287 186c1 27 2 44 7 79c-17 3 -82 21 -123 36c-12 -54 -53 -244 -67 -309c-7 -38 -81 -43 -139 -32c41 127 97 333 107 386
c-181 97 -186 230 -141 303c45 74 182 86 236 10c50 -70 37 -175 15 -309c40 -17 81 -29 118 -38c22 158 64 352 67 370c91 -28 124 -67 121 -79c0 0 -45 -168 -68 -317c93 -24 127 9 139 46c-55 38 -78 126 -30 206l88 -51c-74 -193 96 -123 103 -64c15 -5 89 -49 71 -64
c0 0 -96 -146 -92 -151c90 -86 138 -178 130 -303c-15 -133 -119 -227 -201 -211c-89 17 -120 193 90 233c-4 132 -133 193 -131 197c13 50 90 151 113 217c-43 -30 -85 -34 -119 -21c-24 -45 -74 -85 -167 -76c-6 -44 -8 -75 -7 -110zM174 431c41 235 -44 293 -101 265
c-59 -29 -85 -152 101 -265z" />
    <glyph glyph-name="I_z" unicode="Iz" horiz-adv-x="719" 
d="M593 -66v0c-126 -35 -127 -114 -96 -133c27 -16 76 9 96 133zM174 179v0c-1 -78 14 -119 39 -137c62 -46 181 221 211 346c-45 43 -59 122 -15 194l87 -51c-74 -193 96 -123 104 -64c14 -4 89 -49 70 -63c0 0 -96 -147 -92 -151c90 -86 138 -179 130 -303
c-14 -133 -119 -227 -201 -211c-89 17 -119 193 90 232c-4 133 -132 193 -131 197c13 50 90 151 113 217c-45 -31 -88 -34 -122 -19c-37 -104 -150 -356 -247 -367c-108 -12 -167 67 -155 232c5 61 27 183 26 183c-19 -1 -39 -1 -60 0c-5 0 -16 67 -21 69
c34 -6 64 -10 92 -12c25 98 47 176 89 244c147 173 332 -186 31 -280c-20 -88 -38 -187 -38 -256zM222 481c143 38 149 183 111 202c-26 14 -73 -30 -111 -202z" />
    <glyph glyph-name="J_z" unicode="Jz" horiz-adv-x="819" 
d="M146 -66v0c18 57 28 89 41 148c-66 -46 -192 -182 -150 -253c19 -34 74 1 109 105zM692 -56v0c-118 -33 -126 -105 -100 -129c24 -23 79 -4 100 129zM808 -40v0c-15 -133 -119 -227 -201 -211c-89 16 -120 193 89 232c-3 133 -132 193 -131 197c14 50 91 151 114 217
c-60 -42 -117 -33 -154 2c-34 -35 -96 -40 -156 -21c-42 -240 -93 -526 -208 -604c-62 -42 -125 -18 -149 27c-54 118 103 309 190 363c23 72 49 246 50 254c-209 127 -86 428 110 327c75 -39 26 -246 15 -313c10 -11 98 -36 131 -14c-32 44 -38 113 0 176l88 -51
c-74 -193 95 -123 103 -64c15 -4 89 -49 71 -63c0 0 -96 -147 -92 -151c90 -86 138 -179 130 -303zM260 475c15 67 41 250 -24 246c-75 -6 -98 -186 24 -246z" />
    <glyph glyph-name="M_z" unicode="Mz" horiz-adv-x="1245" 
d="M1103 252c90 -86 138 -178 131 -303c-15 -133 -120 -227 -202 -211c-89 17 -119 193 90 233c-3 132 -132 193 -131 197c13 50 90 151 114 217c-40 -28 -78 -33 -110 -24c-17 -115 -112 -412 -262 -355c-64 24 -99 99 -96 223c2 74 10 138 25 237
c-37 -38 -205 -301 -243 -197c-41 111 -66 216 -81 280c-15 -97 -29 -195 -48 -291c45 -14 54 -28 49 -76c-20 11 -40 20 -59 27c-12 -52 -26 -100 -43 -131c-133 -256 -418 155 -69 193c30 139 48 287 62 428c2 19 136 56 141 15c11 -90 55 -302 80 -365
c10 -24 211 252 249 366c11 35 130 -48 126 -68c0 0 -70 -325 -64 -483c13 -316 180 21 202 212c-56 38 -79 126 -30 206l88 -51c-74 -193 95 -123 103 -64c14 -5 89 -49 70 -64c0 0 -96 -146 -92 -151zM63 64c53 -8 86 129 95 166c-180 -6 -151 -156 -95 -166zM1013 -191
c22 -30 82 -17 105 125c-111 -32 -125 -97 -105 -125z" />
    <glyph glyph-name="P_z" unicode="Pz" horiz-adv-x="1043" 
d="M917 -60v0c-109 -30 -125 -93 -106 -122c20 -32 83 -22 106 122zM185 159v0c14 38 27 91 39 149c-66 34 -41 92 19 102c22 132 36 257 36 257c1 12 44 36 139 31c-3 -15 -26 -165 -55 -315c23 -9 56 -41 56 -41c184 67 200 373 -58 408c-154 21 -265 -146 -197 -297
c-51 13 -71 49 -73 59c-46 219 330 377 516 202c111 -103 72 -303 -81 -391c-22 -12 -46 -22 -71 -28c130 -147 261 -58 301 92c-51 40 -70 125 -23 201l87 -50c-74 -194 96 -124 104 -65c14 -4 88 -49 70 -63c0 0 -96 -147 -92 -151c90 -86 138 -178 130 -303
c-14 -133 -119 -227 -201 -211c-89 17 -119 193 90 233c-4 132 -132 193 -131 197c13 49 90 151 113 217c-47 -33 -92 -35 -127 -17c-55 -172 -247 -275 -382 -91c-17 -1 -34 -2 -51 -1c-10 -46 -20 -86 -29 -116c-59 -202 -180 -213 -314 -82c1 4 16 17 17 16
c72 -66 111 -93 168 58zM228 329v0c4 19 8 39 11 59c-36 -12 -52 -43 -11 -59zM367 326c-2 3 -4 5 -5 8c-2 3 -5 6 -7 9c-1 -6 -2 -13 -4 -19c5 1 11 1 16 2z" />
    <glyph glyph-name="S_z" unicode="Sz" horiz-adv-x="761" 
d="M634 -64v0c-128 -36 -127 -117 -94 -134c27 -14 75 13 94 134zM298 740v0c-139 -6 -132 -161 -83 -246c47 -80 115 -119 151 -210c0 -1 4 -10 4 -10c50 9 94 46 114 101c-58 36 -84 127 -34 209l88 -51c-74 -193 95 -123 103 -64c15 -4 89 -49 70 -63
c0 0 -96 -147 -91 -151c89 -86 137 -179 130 -303c-15 -133 -120 -227 -202 -211c-89 17 -119 193 90 232c-3 133 -132 193 -131 197c13 50 90 151 114 217c-39 -27 -77 -32 -108 -24c-25 -56 -72 -103 -137 -108c38 -137 -41 -247 -185 -256c-219 -14 -304 287 46 271
c-21 30 -55 57 -80 88c-66 82 -106 186 -72 290c28 87 109 124 195 122c190 -6 181 -314 -62 -217c188 50 181 190 80 187zM248 251c-276 -3 -224 -270 -74 -220c80 27 117 134 74 220z" />
    <glyph glyph-name="T_z" unicode="Tz" horiz-adv-x="818" 
d="M692 -64v0c-122 -35 -127 -110 -98 -132c25 -19 77 3 98 132zM355 180c6 -319 147 17 180 200c-54 39 -75 126 -27 204l87 -51c-74 -193 96 -123 104 -64c14 -5 88 -49 70 -64c0 0 -96 -146 -92 -151c90 -86 138 -178 130 -303c-14 -133 -119 -226 -201 -211
c-89 17 -119 193 90 233c-4 132 -132 193 -131 197c13 50 90 151 113 217c-40 -28 -79 -33 -111 -23c-30 -145 -139 -405 -244 -360c-60 25 -94 106 -88 228s77 377 102 432c-100 33 -191 74 -253 28c-98 -72 -25 -230 168 -233c12 0 -32 -69 -104 -56
c-176 31 -206 272 -26 332c185 61 374 -102 626 -17c-17 -33 -41 -76 -74 -90c-70 -30 -167 -5 -241 13c-12 -49 -80 -317 -78 -461z" />
    <glyph glyph-name="U_z" unicode="Uz" horiz-adv-x="1031" 
d="M904 -64v0c-135 -38 -126 -126 -88 -137c28 -7 70 23 88 137zM564 180v0c-1 -68 11 -108 31 -129c27 -30 130 96 155 327c-55 37 -79 126 -30 206l88 -51c-74 -193 95 -123 103 -64c15 -5 89 -49 71 -64c0 0 -97 -146 -92 -150c90 -87 137 -179 130 -304
c-15 -133 -119 -226 -202 -211c-88 17 -119 194 90 233c-3 133 -132 193 -131 197c14 50 90 151 114 217c-39 -27 -77 -33 -109 -24c-21 -122 -121 -374 -221 -362c-62 7 -101 51 -114 132c-140 -192 -358 -195 -336 100c4 54 15 123 29 199c-101 21 -139 100 -140 165
c0 193 350 265 279 -105c0 0 42 15 50 17c6 1 12 -71 -63 -80c-21 -90 -36 -177 -37 -249c-2 -302 197 -66 221 98c11 79 83 428 87 451c90 -29 122 -68 119 -80c0 0 -91 -310 -92 -469zM142 494l9 -2c33 197 -22 237 -68 213c-58 -31 -102 -163 59 -211z" />
    <glyph glyph-name="Y_z" unicode="Yz" horiz-adv-x="914" 
d="M411 715v0c63 -13 119 -27 118 -40c-11 -216 -46 -472 -95 -689c167 52 195 253 201 399c-56 37 -80 127 -31 207l87 -51c-74 -193 96 -123 104 -64c14 -4 89 -49 70 -63c0 0 -96 -147 -92 -151c90 -86 138 -178 130 -303c-14 -133 -119 -227 -201 -211
c-89 17 -119 193 90 232c-4 133 -132 193 -131 197c13 50 90 151 113 217c-38 -26 -74 -32 -106 -24c-15 -152 -69 -360 -243 -419l-2 -9c-112 -411 -457 -65 -110 21c12 50 36 188 43 245c-12 -78 -78 -209 -161 -202c-207 19 -102 413 -98 455c-123 88 -112 213 -58 263
c66 61 212 54 216 -10c3 -58 -22 -149 -36 -232c0 0 56 -17 75 -21c-27 -58 -80 -38 -85 -36c-28 -105 -49 -328 6 -346c137 -44 195 542 196 635zM108 524v0c0 -3 23 121 24 124c24 101 -35 101 -76 55c-38 -41 -33 -133 52 -179zM788 -56v0c-134 -37 -127 -124 -89 -136
c28 -8 71 22 89 136zM304 -69c-99 -31 -118 -90 -103 -113s65 -8 103 113z" />
    <glyph glyph-name=".notdef" horiz-adv-x="300" 
 />
    <glyph glyph-name="k" unicode="k" horiz-adv-x="402" 
d="M321 483c0 0 -66 -74 -103 -160c-14 -161 75 -372 296 -229l8 -19c-231 -136 -329 -29 -370 79c-16 -45 -33 -94 -50 -147c-6 -17 -76 -3 -85 27c-53 188 37 557 102 723c91 -28 106 -64 101 -76c-43 -104 -116 -443 -126 -559c36 105 133 361 180 362c25 1 34 -1 47 -1z
" />
    <glyph glyph-name="g" unicode="g" horiz-adv-x="432" 
d="M217 427c-91 -36 -123 -290 -68 -317c112 -55 171 358 68 317zM337 -52c-109 -429 -464 -78 -114 9c8 34 16 74 23 117c-37 -49 -87 -80 -147 -73c-141 14 -133 402 41 491c52 27 106 26 142 -16c0 11 0 22 1 31c63 -13 119 -27 118 -40c-9 -166 -27 -357 -64 -519z
M214 -76c-97 -31 -117 -89 -104 -112c15 -25 66 -11 104 112z" />
    <glyph glyph-name="l" unicode="l" horiz-adv-x="275" 
d="M346 81l9 -22c-265 -156 -386 17 -347 293c18 127 72 315 107 404c90 -28 104 -64 101 -76c-26 -100 -68 -233 -88 -346c-43 -250 13 -365 218 -253z" />
    <glyph glyph-name="y" unicode="y" horiz-adv-x="385" 
d="M354 433c-8 -155 -36 -571 -161 -674c-134 -110 -293 121 -19 189c15 55 30 141 39 211c-109 -361 -293 -92 -174 360c90 -28 112 -45 109 -57c-50 -181 -47 -381 -10 -371c38 10 92 240 98 382c0 13 119 -30 118 -40zM165 -85c-98 -31 -117 -90 -103 -113
c15 -23 66 -9 103 113z" />
    <glyph glyph-name="p" unicode="p" horiz-adv-x="452" 
d="M276 440c-76 80 -205 -359 -81 -356c61 1 148 284 81 356zM89 -257c4 -13 -78 6 -84 39c-21 107 28 614 82 766c46 -4 120 -26 114 -39c-3 -7 -7 -19 -12 -36c14 15 29 27 44 35c52 27 103 5 140 -42c121 -154 -36 -509 -169 -463c-44 15 -73 47 -90 88
c-26 -164 -33 -324 -25 -348z" />
    <glyph glyph-name="h" unicode="h" horiz-adv-x="481" 
d="M552 97l9 -22c-378 -223 -344 222 -343 240c-39 -63 -69 -166 -116 -308c-7 -16 -76 -3 -85 27c-53 188 37 557 102 723c91 -28 106 -64 101 -76c-43 -105 -116 -443 -126 -559c36 105 133 361 180 362c25 1 84 -22 81 -33c-76 -319 -35 -480 197 -354z" />
    <glyph glyph-name="f" unicode="f" horiz-adv-x="410" 
d="M264 -40c-109 -429 -463 -78 -113 9c18 74 32 170 42 263c-83 -8 -74 -8 -97 55c0 0 40 -21 100 -23c7 76 -2 402 137 378c123 -21 77 -235 -5 -364c30 6 58 14 81 21c1 -12 1 -21 -6 -24c-30 -10 -59 -19 -93 -27c-11 -97 -24 -193 -46 -288zM312 293
c80 133 75 297 55 291c-35 -9 -51 -250 -55 -291zM142 -64c-100 -31 -118 -91 -103 -114c16 -22 65 -6 103 114z" />
    <glyph glyph-name="s" unicode="s" horiz-adv-x="363" 
d="M119 244c-11 93 -15 282 107 265c44 -6 96 -29 107 -77c26 -119 -73 -294 -73 -299c31 -251 -37 -373 -260 -212l21 19c208 -144 119 130 98 304zM252 176c67 159 59 240 38 246c-23 8 -63 -75 -38 -246z" />
    <glyph glyph-name="t" unicode="t" horiz-adv-x="291" 
d="M362 81l9 -22c-259 -153 -381 9 -349 275c5 45 15 95 28 143c-30 8 -49 14 -49 14l-1 27s23 -5 57 -10c18 64 37 124 52 166c91 -29 105 -64 101 -77c-9 -34 -18 -67 -27 -100c37 -1 76 1 110 8l2 -44c-39 -8 -82 -8 -123 -4c-13 -47 -24 -95 -32 -146
c-35 -234 23 -338 222 -230z" />
    <glyph glyph-name="j" unicode="j" horiz-adv-x="357" 
d="M329 496c-150 18 -89 214 -89 214c94 -16 112 -49 111 -62c-4 -44 -16 -108 -22 -152zM264 -40c-109 -429 -463 -78 -113 9c39 152 56 404 57 509c63 -14 119 -27 118 -40c-8 -155 -27 -327 -62 -478zM142 -64c-94 -30 -116 -84 -105 -109c12 -28 65 -18 105 109z" />
    <glyph glyph-name="i" unicode="i" horiz-adv-x="275" 
d="M346 81v0l9 -22c-308 -181 -422 81 -315 434c91 -28 112 -45 109 -57c-75 -319 -34 -481 197 -355zM165 481c-146 39 -58 224 -58 224c90 -29 104 -64 101 -77c-11 -43 -31 -104 -43 -147z" />
    <glyph glyph-name="b" unicode="b" horiz-adv-x="432" 
d="M252 444c-75 80 -205 -358 -80 -356c61 2 148 285 80 356zM150 459c18 24 38 43 60 54c51 27 103 5 140 -42c108 -139 -8 -441 -130 -466c-216 -44 -234 211 -212 368c19 127 67 300 102 389c91 -28 104 -64 101 -76c-18 -69 -42 -148 -61 -227z" />
    <glyph glyph-name="d" unicode="d" horiz-adv-x="536" 
d="M217 427v0c-91 -36 -123 -290 -68 -317c113 -55 165 356 68 317zM607 97l9 -22c-177 -105 -290 -62 -334 61c-38 -83 -100 -144 -183 -135c-141 14 -133 402 41 491c53 27 110 26 145 -20c1 -1 2 -3 3 -4c23 107 57 222 83 289c90 -29 104 -64 101 -77
c-26 -99 -63 -217 -83 -330c-43 -250 13 -365 218 -253z" />
    <glyph glyph-name="r" unicode="r" horiz-adv-x="406" 
d="M477 81l9 -22c-277 -164 -397 34 -339 334c-16 -7 -31 -9 -46 -8c-4 -49 -34 -174 -87 -268c-4 11 -9 22 -14 33c35 75 64 174 68 245c-53 29 -82 112 -34 214l88 -50c-68 -189 37 -169 50 -66c15 -4 115 -34 109 -57c-76 -319 -35 -481 196 -355z" />
    <glyph glyph-name="q" unicode="q" horiz-adv-x="438" 
d="M217 442c-91 -36 -123 -290 -68 -317c110 -53 170 358 68 317zM443 -236l5 -21c-172 -48 -236 120 -224 321c-34 -34 -76 -53 -125 -48c-141 14 -133 402 41 491c53 27 110 26 145 -20c9 -12 17 -27 23 -44c8 26 17 50 24 69c91 -28 104 -64 101 -76
c-26 -100 -63 -218 -83 -331c-32 -189 -10 -347 93 -341z" />
    <glyph glyph-name="o" unicode="o" horiz-adv-x="395" 
d="M339 431c-244 97 -283 -374 -154 -358c92 12 141 163 125 231c-130 4 -69 132 -1 104c76 -32 48 -156 29 -218c-33 -105 -107 -195 -217 -190c-159 7 -169 395 23 493c58 30 122 32 164 -12c12 -14 23 -30 31 -50z" />
    <glyph glyph-name="n" unicode="n" horiz-adv-x="477" 
d="M548 97l9 -22c-378 -223 -343 222 -343 240c-39 -63 -69 -166 -116 -308c-6 -17 -76 -3 -84 27c-28 98 -12 324 33 469c90 -29 113 -46 109 -58c-21 -50 -56 -208 -65 -323c36 105 132 361 179 362c26 1 84 -22 82 -33c-76 -319 -35 -480 196 -354z" />
    <glyph glyph-name="e" unicode="e" horiz-adv-x="344" 
d="M393 144v0l11 -21c-3 -2 -65 -48 -68 -50c-386 -276 -430 308 -180 424c164 76 305 -79 -33 -330c0 -151 70 -159 200 -73c3 2 67 48 70 50zM126 209c147 137 166 202 140 208c-32 7 -126 -70 -140 -208z" />
    <glyph glyph-name="c" unicode="c" horiz-adv-x="348" 
d="M397 148l11 -21c-3 -2 -65 -48 -68 -50c-386 -275 -430 263 -196 410c57 36 126 35 179 5l-59 -95c-183 41 -254 -509 63 -299c3 2 67 48 70 50z" />
    <glyph glyph-name="m" unicode="m" horiz-adv-x="685" 
d="M479 484c25 1 83 -22 81 -32c-76 -319 -35 -481 196 -355l9 -22c-136 -80 -219 -74 -269 -32c-7 7 -14 14 -20 22c-66 83 -54 240 -54 250c-48 -78 -59 -138 -89 -222c-14 -39 -23 -75 -59 -36c-73 81 -60 247 -60 258c-39 -63 -69 -165 -116 -308c-19 -17 -76 -3 -84 27
c-28 98 -12 324 32 469c91 -29 114 -46 110 -58c-21 -50 -56 -208 -65 -323c36 105 132 361 179 362c26 1 84 -22 82 -32c-27 -114 -39 -207 -34 -275c44 120 120 306 161 307z" />
    <glyph glyph-name="x" unicode="x" horiz-adv-x="352" 
d="M3 47c38 50 76 105 110 163c-94 140 -123 268 -109 298c22 4 60 -12 60 -12c-11 -50 7 -133 73 -243c37 72 71 155 88 232c3 14 34 15 127 -18c-30 -95 -91 -212 -154 -308c0 0 87 -99 151 -136l-23 -18c-57 36 -111 83 -148 123c-38 -55 -75 -100 -105 -125
c-21 -18 -70 44 -70 44z" />
    <glyph glyph-name="z" unicode="z" horiz-adv-x="343" 
d="M214 -52v0c-234 -64 -44 -273 0 0zM332 -37c-15 -132 -121 -225 -205 -209c-90 16 -121 192 91 231c-3 132 -134 192 -133 196c14 49 92 150 116 215c-137 -91 -256 65 -174 196l89 -50c-75 -192 97 -123 105 -64c15 -4 91 -49 72 -63c0 0 -98 -146 -93 -150
c91 -86 140 -178 132 -302z" />
    <glyph glyph-name="w" unicode="w" horiz-adv-x="470" 
d="M331 122c20 89 104 328 148 387c0 0 28 7 54 -16c-66 -61 -154 -295 -182 -486c-10 -16 -76 -3 -88 27c-28 71 -40 210 -34 336c-45 -101 -88 -241 -106 -363c-9 -16 -76 -3 -88 27c-38 98 -46 324 -18 468c93 -28 119 -45 115 -57c-15 -51 -33 -209 -29 -323
c19 83 96 306 142 380c93 -28 119 -45 115 -57c-15 -51 -33 -209 -29 -323z" />
    <glyph glyph-name="B" unicode="B" horiz-adv-x="724" 
d="M426 574v0c-11 -38 -75 -216 -93 -359c37 -2 69 0 88 6c21 6 -27 -63 -49 -65c-8 -1 -24 1 -44 6c-4 -93 22 -156 110 -127c146 49 273 281 -33 240c-25 12 -23 47 -10 66c160 219 148 331 -34 330c-320 -1 -437 -336 -150 -434c2 18 6 53 8 65c18 105 71 262 107 336
c90 -24 104 -53 100 -64zM210 204c-7 3 -13 6 -19 10c-331 160 -186 531 93 556c294 25 366 -148 180 -398c55 10 290 -12 192 -209c-88 -179 -422 -271 -446 41z" />
    <glyph glyph-name="K" unicode="K" horiz-adv-x="635" 
d="M147 173c8 23 15 51 22 83c-119 -60 -140 -137 -123 -168c16 -30 67 -19 101 85v0zM304 314c-21 -105 -52 -295 -164 -315c-49 -9 -114 15 -132 65c-39 111 93 197 171 239c35 177 51 417 51 417c1 13 44 40 138 37c-2 -17 -26 -223 -54 -388c122 115 153 190 208 374
c2 8 63 5 92 10c-43 -239 -156 -344 -270 -416c133 -51 185 -239 321 -314c0 0 -99 -34 -136 -13c-91 49 -129 220 -225 304z" />
    <glyph glyph-name="Z" unicode="Z" horiz-adv-x="574" 
d="M561 98v0c-33 -66 -55 -96 -89 -98c-111 -6 -214 67 -245 70c-157 -241 -376 56 -80 70c90 150 200 371 265 512c-114 -116 -355 -75 -329 103c240 -152 347 -14 367 -19c49 -12 120 -56 114 -67c-19 -35 -181 -344 -313 -557c75 -24 195 -37 310 -14zM120 100
c-81 -2 -103 -32 -96 -50c8 -20 55 -24 96 50z" />
    <glyph glyph-name="J" unicode="J" horiz-adv-x="412" 
d="M146 -71v0c18 58 28 89 41 149c-66 -46 -192 -183 -150 -254c19 -33 73 2 109 105zM369 371v0c-42 -240 -93 -526 -208 -604c-62 -42 -125 -17 -149 27c-54 118 103 309 190 363c23 72 49 246 50 254c-209 127 -86 429 110 327c75 -39 27 -238 17 -305c0 0 30 -12 63 -19
c-34 -61 -50 -49 -73 -43zM260 470c14 68 41 250 -24 246c-75 -5 -98 -185 24 -246z" />
    <glyph glyph-name="C" unicode="C" horiz-adv-x="511" 
d="M527 119l14 -27c-532 -373 -735 360 -317 617c48 29 98 43 145 41c229 -9 233 -354 -97 -273c255 32 258 225 141 223c-293 -4 -431 -928 114 -581z" />
    <glyph glyph-name="D" unicode="D" horiz-adv-x="711" 
d="M416 572v0c-12 -37 -76 -217 -94 -360c38 -3 70 0 89 5c21 6 -27 -62 -48 -64c-9 -1 -25 1 -46 6c-3 -92 22 -155 110 -125c186 62 232 655 -128 632c-232 -15 -365 -246 -166 -399c20 -13 43 -24 67 -32c2 17 6 53 8 65c18 105 72 262 107 336c90 -24 104 -53 101 -64z
M199 202c-10 4 -19 9 -27 14c-318 163 -139 533 101 552c519 41 515 -687 148 -766c-143 -31 -213 69 -222 200z" />
    <glyph glyph-name="L" unicode="L" horiz-adv-x="416" 
d="M649 -19c-31 -71 -49 -92 -105 -97c-134 -10 -271 101 -308 104c-121 -286 -405 10 -95 52c61 214 92 573 94 695c65 -13 126 -40 126 -53c-9 -161 -65 -503 -112 -658c150 -65 262 -68 400 -43zM129 -5c-91 -11 -112 -54 -100 -74c12 -19 57 -14 100 74z" />
    <glyph glyph-name="I" unicode="I" horiz-adv-x="317" 
d="M174 171v0c-2 -171 68 -144 159 -104c2 1 5 -27 5 -31c-187 -101 -299 -35 -283 187c5 61 27 183 26 183c-19 -1 -39 -1 -60 0c-5 0 -16 67 -21 69c34 -7 64 -10 92 -12c25 98 47 176 89 244c147 172 332 -186 31 -280c-20 -89 -38 -187 -38 -256zM222 473
c129 35 147 156 120 193c-22 32 -76 3 -120 -193z" />
    <glyph glyph-name="T" unicode="T" horiz-adv-x="503" 
d="M355 179c3 -171 78 -141 169 -100c1 0 -1 -31 -1 -35c-185 -101 -299 -35 -288 187c6 121 77 377 101 431c-99 33 -191 74 -253 28c-98 -72 -25 -229 169 -233c12 0 -33 -68 -104 -56c-176 31 -207 272 -27 332c185 61 374 -102 626 -17c-16 -33 -40 -76 -74 -90
c-69 -30 -167 -5 -240 13c-13 -49 -81 -317 -78 -460z" />
    <glyph glyph-name="W" unicode="W" horiz-adv-x="514" 
d="M361 143c24 96 191 539 237 606c0 0 43 10 69 -12c-69 -71 -255 -526 -290 -731c-10 -19 -76 -10 -86 21c-26 74 -14 347 -4 482c-49 -112 -115 -390 -137 -522c-10 -18 -76 -9 -87 22c-35 102 -85 593 -52 750c58 -15 115 -13 109 -74c-9 -102 14 -465 14 -576
c22 90 129 508 177 592c92 -23 117 -40 113 -53c-17 -55 -62 -383 -63 -505z" />
    <glyph glyph-name="V" unicode="V" horiz-adv-x="326" 
d="M180 146c26 93 176 544 224 608c0 0 38 10 64 -11c-71 -69 -231 -535 -271 -734c-10 -18 -76 -9 -86 21c-32 98 -104 465 -111 722c61 1 129 4 130 -65c1 -94 -8 -267 50 -541z" />
    <glyph glyph-name="Y" unicode="Y" horiz-adv-x="531" 
d="M215 85v0c138 -44 196 542 196 635c64 -13 119 -27 119 -40c-13 -230 -52 -507 -106 -732c-113 -411 -458 -65 -111 21c13 50 36 188 44 245c-12 -78 -79 -209 -162 -202c-206 19 -102 413 -97 455c-123 88 -113 213 -59 263c67 61 212 54 216 -10
c4 -58 -22 -149 -35 -232c0 0 56 -17 75 -21c-28 -58 -80 -38 -85 -36c-28 -105 -49 -328 5 -346zM109 529v0c-1 -3 22 121 23 124c25 101 -34 101 -76 55c-37 -41 -33 -133 53 -179zM304 -64c-101 -32 -118 -93 -101 -115c16 -20 65 -3 101 115z" />
    <glyph glyph-name="U" unicode="U" horiz-adv-x="699" 
d="M564 176v0c-1 -171 83 -142 163 -99c2 0 2 -31 2 -36c-156 -83 -260 -52 -281 87c-141 -192 -359 -194 -337 100c4 55 15 123 30 200c-102 20 -140 99 -140 164c-1 194 349 266 279 -105c0 0 42 15 50 17c6 1 11 -71 -64 -79c-20 -91 -36 -178 -36 -249
c-3 -303 196 -67 220 97c12 79 83 429 87 451c91 -28 123 -67 119 -80c0 0 -91 -309 -92 -468zM143 490c9 -3 8 -3 8 -3c34 205 -26 240 -72 210c-56 -35 -93 -161 64 -207z" />
    <glyph glyph-name="R" unicode="R" horiz-adv-x="722" 
d="M183 154c13 38 24 91 34 150c-68 34 -44 92 15 103c18 132 28 258 28 258c0 12 43 37 137 33c-2 -16 -20 -167 -44 -317c23 -10 58 -42 58 -42c182 69 187 377 -72 411c-154 20 -272 -149 -187 -301c-52 12 -73 49 -75 59c-53 220 317 382 509 208
c130 -118 71 -361 -136 -425c78 -89 140 -198 302 -265c-205 -83 -282 109 -367 254c-16 -1 -32 -1 -49 0c-8 -46 -16 -88 -24 -118c-53 -203 -173 -215 -312 -85c1 4 16 22 17 21c75 -66 114 -97 166 56v0zM220 325c3 19 6 39 9 59c-35 -12 -50 -44 -9 -59v0zM359 323
c-2 3 -4 5 -5 8c-3 3 -5 6 -7 9c-1 -6 -2 -13 -3 -19c5 0 10 1 15 2z" />
    <glyph glyph-name="H" unicode="H" horiz-adv-x="638" 
d="M500 175v0c3 -171 74 -145 165 -104c1 0 3 -27 3 -31c-185 -101 -299 -35 -288 187c2 27 3 44 8 78c-18 3 -82 21 -123 36c-12 -54 -53 -243 -67 -309c-7 -38 -81 -43 -139 -31c41 126 96 332 106 385c-180 97 -185 230 -141 303c46 75 182 86 237 10
c50 -70 37 -175 14 -309c41 -17 81 -29 119 -38c22 158 63 352 66 371c92 -29 124 -67 121 -80c0 0 -43 -160 -66 -308c13 -1 24 0 32 1c13 -60 -29 -53 -39 -52c-6 -44 -8 -75 -8 -109zM175 428c43 244 -52 298 -108 262c-54 -35 -71 -153 108 -262z" />
    <glyph glyph-name="G" unicode="G" horiz-adv-x="557" 
d="M218 83v0c157 -74 181 271 182 364c63 -14 119 -27 118 -40c-8 -146 -26 -303 -58 -446c-109 -429 -464 -77 -114 9c13 50 23 106 30 164c-37 -64 -94 -131 -177 -124c-212 19 -249 347 -134 563c98 181 239 209 334 169c201 -83 82 -326 -142 -248
c163 6 258 206 136 227c-85 15 -177 -92 -208 -165c-58 -136 -90 -415 33 -473zM337 -63c-101 -32 -119 -93 -102 -114c16 -21 65 -4 102 114z" />
    <glyph glyph-name="M" unicode="M" horiz-adv-x="902" 
d="M280 212v0v0zM762 168v0c7 -170 80 -126 169 -86c2 1 -2 -31 -2 -35c-182 -100 -297 -35 -292 186c2 74 10 137 25 237c-37 -39 -205 -301 -243 -198c-41 112 -66 216 -81 280c-15 -96 -29 -194 -48 -291c45 -14 54 -27 49 -75c-20 10 -40 19 -59 26
c-12 -51 -26 -100 -43 -131c-133 -255 -418 156 -69 193c30 140 48 288 62 428c2 19 136 56 141 16c11 -90 55 -303 80 -366c10 -24 211 252 249 366c11 35 130 -47 126 -68c0 0 -70 -324 -64 -482zM158 233c-180 -6 -151 -156 -95 -165c53 -9 86 128 95 165z" />
    <glyph glyph-name="F" unicode="F" horiz-adv-x="540" 
d="M431 642c-2 -16 -12 -139 -30 -265c56 -2 105 -6 126 -6c1 -26 -59 -34 -132 -35c-9 -60 -19 -119 -32 -163c-58 -211 -186 -230 -329 -65c1 4 13 26 14 25c73 -72 131 -121 186 37c15 43 29 104 41 169c-46 2 -86 4 -103 4c-1 24 47 33 110 35c22 133 37 268 39 291
c-95 32 -182 67 -241 24c-96 -72 -19 -230 174 -233c12 0 -31 -69 -102 -56c-177 31 -213 272 -35 331c184 62 377 -101 627 -16c-16 -34 -39 -76 -72 -91c-69 -30 -167 -4 -241 14z" />
    <glyph glyph-name="E" unicode="E" horiz-adv-x="523" 
d="M408 256c41 3 169 -95 -11 -227c-68 -50 -188 -49 -257 -30c-196 53 -181 349 19 445c-174 154 20 385 223 304c73 -29 116 -150 -22 -163c55 76 61 151 -38 151c-144 1 -195 -187 9 -319c-166 -12 -304 -302 -127 -398c112 -60 247 113 204 237z" />
    <glyph glyph-name="N" unicode="N" horiz-adv-x="664" 
d="M215 685c3 73 140 84 141 34c0 -253 73 -456 141 -593c2 145 9 320 37 466c41 214 196 183 326 41c-1 -4 -3 -7 -4 -6c-75 70 -170 111 -214 -54c-37 -141 -47 -531 -47 -532c6 -20 -71 -66 -112 -30c-42 38 -146 375 -163 450c0 0 -10 -98 -30 -199
c45 -15 54 -28 49 -76c-21 11 -40 20 -59 27v0c-12 -52 -27 -100 -43 -132c-134 -255 -418 157 -68 194c29 139 42 311 46 410v0zM116 107c17 32 32 76 44 127c-237 -6 -116 -262 -44 -127z" />
    <glyph glyph-name="S" unicode="S" 
d="M307 730c-139 -5 -133 -160 -84 -245c47 -81 116 -120 151 -210c59 -151 -21 -276 -175 -286c-272 -17 -250 393 -18 293c-171 -32 -159 -315 1 -261c98 33 131 183 37 270c-95 89 -168 217 -126 348c28 86 110 124 195 121c190 -6 181 -314 -62 -217
c188 50 182 191 81 187z" />
    <glyph glyph-name="A" unicode="A" horiz-adv-x="714" 
d="M574 224v0c0 -124 14 -230 169 -161c1 1 1 -28 1 -32c-242 -133 -306 31 -283 246c-25 11 -51 19 -89 23c-67 -156 -135 -306 -265 -299c-126 8 -225 332 218 346c85 190 161 393 222 408c35 9 97 -54 92 -78c0 0 -47 -200 -61 -360c18 -6 93 -38 33 -117
c-12 9 -25 16 -37 24zM309 307v0c-242 2 -295 -105 -264 -165c34 -65 165 -75 264 165zM388 347c28 0 80 -7 80 -7c13 95 39 234 54 309c0 0 -103 -209 -134 -302z" />
    <glyph glyph-name="Q" unicode="Q" horiz-adv-x="591" 
d="M97 584c15 101 108 190 234 177c348 -36 314 -708 -71 -763c74 -45 156 -107 285 -44c-203 -233 -305 55 -490 30c17 17 34 29 50 37c-151 109 -125 516 -8 563zM376 424c-44 -68 -160 -106 -224 -43c-18 18 -32 40 -40 64c-54 -191 1 -404 131 -404
c203 0 304 670 92 680c-193 9 -268 -425 41 -297z" />
    <glyph glyph-name="O" unicode="O" horiz-adv-x="596" 
d="M98 584v0c15 101 108 190 234 177c372 -38 307 -803 -156 -766c-227 19 -211 536 -78 589zM377 424c-44 -68 -160 -106 -224 -43c-18 18 -32 40 -40 64c-54 -191 1 -404 131 -404c203 0 304 670 92 680c-193 9 -268 -425 41 -297z" />
    <glyph glyph-name="P" unicode="P" horiz-adv-x="626" 
d="M185 158c14 37 28 90 39 148c-66 35 -40 93 19 103c22 131 36 256 36 256c1 12 44 36 139 31c-2 -15 -26 -165 -55 -314c23 -10 57 -42 57 -42c184 67 199 373 -58 409c-154 21 -266 -146 -197 -297c-52 12 -72 49 -74 59c-46 218 330 377 517 202
c110 -104 71 -303 -81 -391c-55 -32 -120 -43 -184 -41c-10 -45 -19 -86 -28 -116c-60 -201 -181 -213 -315 -82c1 4 15 20 16 19c73 -66 113 -95 169 56v0zM229 327c3 20 7 39 10 59c-35 -11 -52 -43 -10 -59v0zM367 325c-2 2 -3 5 -5 7c-2 4 -4 7 -6 10
c-2 -7 -3 -13 -4 -20z" />
    <glyph glyph-name="X" unicode="X" horiz-adv-x="450" 
d="M426 71c0 0 -63 -81 -85 -52c-31 41 -68 111 -105 195c-48 -52 -142 -170 -212 -214l-24 30c78 42 216 232 216 232c-60 147 -116 325 -139 465c111 33 146 27 148 6c11 -112 39 -236 73 -346c89 148 119 265 112 338c0 0 47 18 71 9c13 -46 -37 -225 -161 -412
c32 -89 68 -173 106 -251z" />
    <glyph glyph-name="ampersand" unicode="&#x26;" horiz-adv-x="644" 
d="M484 325c147 -46 62 -398 -330 -311c-215 47 -198 300 17 384c-161 133 19 333 207 263c68 -24 108 -129 -20 -141c51 66 57 131 -35 131c-134 1 -214 -145 14 -239c-131 -9 -309 -162 -203 -293c190 -236 597 132 159 164c-5 0 -3 16 -4 21c185 10 458 189 221 353
c252 -13 187 -259 -26 -332z" />
    <glyph glyph-name="at" unicode="@" horiz-adv-x="764" 
d="M375 399v0c-68 -25 -91 -202 -51 -220c84 -38 120 246 51 220zM616 153c-73 -57 -157 -54 -194 42c-28 -56 -74 -98 -135 -92c-105 10 -99 279 31 341c39 19 81 18 107 -14l3 -3c2 9 5 18 8 28c68 -20 84 -31 81 -40c-66 -262 18 -302 86 -240c176 159 11 493 -240 456
c-166 -25 -284 -216 -282 -398c5 -272 282 -421 432 -190c-26 -219 -558 -270 -509 225c17 169 163 337 329 391c351 115 506 -332 283 -506z" />
    <glyph glyph-name="nine" unicode="9" horiz-adv-x="526" 
d="M26 122c8 -54 68 -167 184 -125c219 79 201 405 103 493c-80 73 -181 -47 -185 -122c-9 -131 146 -255 230 -20c-16 -211 -216 -222 -279 -119c-79 129 73 335 241 320c84 -8 144 -77 147 -171c7 -199 -119 -356 -253 -410c-133 -53 -271 15 -188 154z" />
    <glyph glyph-name="eight" unicode="8" horiz-adv-x="436" 
d="M270 335c116 97 11 239 -87 186c-153 -83 228 -229 162 -440c-17 -55 -60 -106 -142 -116c-245 -31 -274 195 -55 318c0 0 -79 77 -69 158c8 63 58 117 150 125c100 8 191 -72 144 -170c-28 -58 -103 -61 -103 -61v0zM167 261c-62 -44 -133 -121 -101 -194
c62 -138 307 -47 180 106c-24 29 -52 59 -79 88z" />
    <glyph glyph-name="seven" unicode="7" horiz-adv-x="426" 
d="M289 470c-8 -4 -211 16 -277 45c-25 11 -7 66 41 103c258 -122 322 -63 334 -54c37 34 77 -12 44 -29c-120 -74 -182 -204 -207 -269c30 -2 97 -8 110 -8c1 -18 -77 -20 -120 -21c-33 -96 -71 -237 -66 -288c-66 10 -92 44 -90 53c11 54 56 167 88 237
c-27 2 -112 6 -124 6c-1 18 95 21 137 22c36 76 120 195 130 203z" />
    <glyph glyph-name="six" unicode="6" horiz-adv-x="537" 
d="M417 433c-14 54 -85 159 -196 105c-210 -102 -157 -424 -51 -501c88 -64 175 66 172 141c-5 131 -173 238 -231 -5c-7 211 191 244 265 148c92 -119 -38 -341 -206 -343c-85 -1 -152 61 -165 154c-27 198 81 367 209 435c126 66 271 14 203 -134z" />
    <glyph glyph-name="five" unicode="5" horiz-adv-x="560" 
d="M464 543c26 -63 -20 -107 -20 -107s-30 50 -106 48c-76 -3 -135 -10 -135 -10l-46 -146s259 56 284 -160c25 -220 -360 -322 -432 -144c-34 83 40 137 54 140c-11 -92 35 -206 123 -202c219 10 259 323 -105 282c0 0 80 259 77 263c-79 75 36 115 42 54
c54 -8 236 50 264 -18z" />
    <glyph glyph-name="four" unicode="4" horiz-adv-x="470" 
d="M308 520v0l-249 -284c58 -12 144 -11 187 -18c10 56 59 244 62 302zM242 171c-65 0 -174 -2 -200 -5c-39 -6 -52 65 -34 87l295 317c6 6 111 -22 107 -39c-23 -92 -52 -220 -69 -327c15 -4 36 -11 50 -17c0 0 1 -23 -5 -22c-21 3 -38 3 -51 4c-17 -107 -32 -187 -34 -197
c-86 23 -97 49 -94 59c0 0 15 52 35 140z" />
    <glyph glyph-name="three" unicode="3" horiz-adv-x="537" 
d="M75 169c-40 -52 -9 -224 169 -202c157 20 175 250 -33 232c-27 -2 -10 86 -10 86c227 49 155 242 60 245c-61 2 -130 -68 -93 -162c-130 26 -54 164 55 185c220 44 336 -178 77 -275c256 -66 178 -360 -126 -343c-211 11 -210 189 -99 234z" />
    <glyph glyph-name="two" unicode="2" horiz-adv-x="515" 
d="M136 328c0 0 -91 25 -79 95c31 175 369 164 355 -15c-12 -159 -139 -192 -247 -262c0 0 170 -16 208 -36c38 -21 32 -22 32 -22l-55 -88s-199 106 -267 76c-112 -49 -94 59 -37 63c0 0 98 14 201 122c236 249 -231 369 -111 67z" />
    <glyph glyph-name="one" unicode="1" horiz-adv-x="336" 
d="M133 471l-95 -113l-38 6l138 181c5 6 116 -34 111 -49c-28 -87 -81 -478 -83 -496c-77 20 -89 43 -88 52c0 0 9 182 55 419z" />
    <glyph glyph-name="zero" unicode="0" horiz-adv-x="515" 
d="M245 40v0c81 7 121 107 110 228s-70 219 -151 212s-117 -105 -105 -226c11 -121 65 -221 146 -214zM274 521c287 -25 204 -545 -102 -520c-281 22 -194 545 102 520z" />
    <glyph glyph-name="question" unicode="?" horiz-adv-x="434" 
d="M179 342v0c119 55 153 129 143 190c-39 227 -396 46 -181 -83c-254 -40 -136 271 141 235c197 -26 218 -242 -52 -359c-152 -66 -88 -182 -59 -192c-120 -23 -186 120 8 209zM111 87c28 -9 41 -41 30 -72c-11 -30 -42 -48 -70 -39s-42 41 -31 71c11 31 43 49 71 40z" />
    <glyph glyph-name="dollar" unicode="$" horiz-adv-x="423" 
d="M285 568v0h-4c-10 -43 -18 -84 -26 -124c127 43 114 126 30 124zM216 433v0c7 42 15 84 22 127c-80 -27 -70 -118 -31 -171l2 -2l7 43c-2 0 -4 1 -6 1c2 1 4 1 6 2zM251 421v0c-4 -23 -9 -45 -13 -68c39 -38 83 -66 109 -118c54 -108 -18 -198 -157 -207
c-5 -36 -9 -72 -14 -110l-50 -14c8 41 15 83 22 124c-213 16 -184 282 19 213c-151 -23 -147 -213 -16 -194c12 71 24 142 36 212c-80 64 -137 153 -101 242c24 57 87 85 157 88l15 92l40 -35c-4 -19 -8 -39 -13 -58c147 -17 143 -198 -34 -167zM219 234
c-9 -56 -17 -113 -25 -174c65 33 84 116 25 174z" />
    <glyph glyph-name="percent" horiz-adv-x="491" 
d="M443 451c-173 -198 -265 -259 -401 -425l-23 36c81 102 211 190 334 359c-41 -14 -75 -2 -98 13v0c-12 -70 -68 -138 -157 -132c-152 12 -116 261 31 278c36 4 60 -22 30 -29c-12 -2 -32 12 -56 4c-39 -12 -65 -63 -59 -121c6 -65 49 -114 96 -111c46 4 78 60 72 125
c-2 17 -6 34 -13 48c8 35 40 40 53 6v0s42 -106 134 -34c8 12 16 25 24 38c32 52 69 -13 33 -55zM374 242c165 -13 117 -291 -58 -278c-161 13 -112 292 58 278zM357 -14c47 3 79 59 73 124c-7 64 -50 114 -96 110s-79 -59 -72 -124c6 -65 49 -114 95 -110z" />
    <glyph glyph-name="backslash" unicode="\" horiz-adv-x="264" 
d="M0 739l35 41c88 -275 166 -517 252 -780l-51 7c-78 279 -131 461 -236 732z" />
    <glyph glyph-name="slash" unicode="/" horiz-adv-x="289" 
d="M385 696c-141 -255 -219 -428 -333 -695l-52 -1c121 250 231 479 356 741z" />
    <glyph glyph-name="braceright" unicode="}" 
d="M303 237c-16 -9 -29 -22 -37 -40c-71 -168 65 -321 -189 -337c-5 0 -45 -2 -64 -3c-5 0 -12 16 -13 16c252 6 108 173 187 342c14 29 48 44 86 51c-164 65 -36 185 -76 347c-16 68 -115 83 -115 83l3 11c40 -4 173 -20 193 -89c40 -142 -57 -260 24 -327
c25 -22 72 -20 106 -29c7 -2 4 -30 -8 -27c-40 8 -62 23 -97 2z" />
    <glyph glyph-name="braceleft" unicode="{" horiz-adv-x="342" 
d="M105 282c-30 26 -55 16 -96 14c-12 0 -9 28 -2 29c35 2 81 -7 110 9c93 52 22 185 90 317c34 65 168 57 207 53l1 -11s-99 3 -130 -61c-71 -152 30 -293 -145 -327c36 -14 67 -34 74 -65c44 -180 -132 -318 114 -370c-1 1 -11 -14 -15 -13c-19 4 -58 13 -63 14
c-246 61 -81 187 -117 364c-4 20 -14 35 -28 47z" />
    <glyph glyph-name="bracketright" unicode="]" horiz-adv-x="355" 
d="M3 -71c28 2 189 -18 192 -3c53 259 79 472 109 736c2 14 -176 37 -186 35l3 57c35 -9 239 -30 236 -50c-41 -264 -87 -554 -129 -833l-228 -14z" />
    <glyph glyph-name="bracketleft" unicode="[" horiz-adv-x="263" 
d="M355 682c-28 -2 -188 18 -191 3c-53 -259 -80 -473 -110 -736c-2 -14 185 -37 195 -35l-3 -57c-34 8 -248 30 -245 50c42 264 87 554 130 833l227 14z" />
    <glyph glyph-name="parenright" unicode=")" horiz-adv-x="289" 
d="M131 724c22 2 22 -8 24 -10c336 -461 -51 -800 -145 -857c-2 -1 -8 7 -10 6c0 0 385 394 131 861z" />
    <glyph glyph-name="parenleft" unicode="(" horiz-adv-x="211" 
d="M160 -143c-23 -2 -23 8 -25 11c-336 460 51 799 145 856c2 1 9 -7 10 -6c0 0 -385 -394 -130 -861z" />
    <glyph glyph-name="exclam" unicode="!" horiz-adv-x="237" 
d="M234 662v0c-6 -72 -120 -494 -140 -504c-8 -4 -43 5 -45 5c33 126 70 460 71 532c70 -10 114 -23 114 -33zM74 87c-27 9 -59 -9 -70 -40c-11 -30 2 -62 30 -71s60 9 71 39c11 31 -3 63 -31 72z" />
    <glyph glyph-name="greater" unicode="&#x3e;" horiz-adv-x="310" 
d="M259 316l-5 -43c-108 -35 -170 -54 -254 -109l7 53c75 36 91 45 165 82c-67 42 -81 51 -150 92v54c76 -61 135 -84 237 -129z" />
    <glyph glyph-name="less" unicode="&#x3c;" horiz-adv-x="317" 
d="M0 316c102 45 161 68 237 129v-54c-69 -41 -83 -50 -150 -92c74 -37 91 -46 165 -82l7 -53c-84 55 -146 74 -254 109z" />
    <glyph glyph-name="equal" unicode="=" horiz-adv-x="398" 
d="M316 285l14 -55c-116 -3 -218 -5 -330 -10l16 43c110 4 178 13 300 22v0zM336 389l13 -55c-113 -3 -211 -6 -319 -10l15 42c107 5 172 14 291 23z" />
    <glyph glyph-name="hyphen" unicode="-" horiz-adv-x="306" 
d="M249 350l11 -55c-92 -3 -172 -6 -260 -10l13 42c90 -7 143 5 236 23z" />
    <glyph glyph-name="plus" unicode="+" horiz-adv-x="493" 
d="M277 488c-18 -57 -31 -106 -41 -154c57 5 114 13 184 21l5 -58c-68 -1 -133 -3 -196 -4c-10 -53 -16 -107 -23 -171l-48 -13c12 63 24 123 36 183c-64 -1 -128 -3 -194 -5l21 43c67 -4 124 -3 181 1c10 55 21 110 32 169z" />
    <glyph glyph-name="semicolon" unicode=";" horiz-adv-x="169" 
d="M69 267c73 -23 -15 -154 -34 -166c-12 -7 11 63 -2 67c-25 8 -37 37 -27 64s38 43 63 35v0zM67 442c25 -8 37 -37 27 -64s-38 -43 -63 -35s-37 36 -27 64c10 27 38 43 63 35z" />
    <glyph glyph-name="colon" unicode=":" horiz-adv-x="158" 
d="M67 267c25 -8 37 -36 27 -64c-10 -27 -38 -43 -63 -35s-37 37 -27 64s38 43 63 35v0zM67 442c25 -8 37 -37 27 -64s-38 -43 -63 -35s-37 36 -27 64c10 27 38 43 63 35z" />
    <glyph glyph-name="underscore" unicode="_" horiz-adv-x="355" 
d="M318 -33l14 -55c-117 -3 -220 -6 -332 -10l16 42c116 -7 182 5 302 23z" />
    <glyph glyph-name="numbersign" unicode="#" horiz-adv-x="599" 
d="M486 540v0c-26 -67 -47 -127 -66 -185c43 -1 88 -1 134 -2l-16 -41c-47 4 -89 7 -130 9c-17 -56 -33 -110 -49 -166c63 -1 128 -2 195 -3l-16 -41c-69 6 -130 10 -188 12c-14 -53 -28 -108 -43 -168l-51 -10c19 61 38 120 56 179c-53 1 -106 0 -161 -1
c-15 -53 -29 -108 -44 -168l-50 -10c18 60 37 118 55 177c-30 -1 -61 -3 -94 -4l-18 43c42 -1 82 -2 123 -2l51 165c-49 -1 -99 -3 -156 -5l-18 43c63 -2 124 -3 184 -4c21 69 43 138 65 211l37 -29c-25 -66 -46 -125 -65 -182c54 -1 107 -2 162 -3c21 70 43 140 65 214z
M160 158l162 -3l51 168c-56 2 -108 2 -163 2c-18 -56 -34 -110 -50 -167z" />
    <glyph glyph-name="asterisk" unicode="*" horiz-adv-x="313" 
d="M359 657l8 -55c-55 -2 -103 -4 -154 -7c27 -40 54 -78 83 -121l-52 -26c-23 59 -35 94 -74 136c-49 -36 -67 -69 -102 -124l-46 34c40 40 76 76 114 115c-45 19 -88 37 -136 58l29 48c52 -37 82 -60 137 -76c14 43 13 78 12 133l59 -8c-11 -46 -21 -88 -31 -131
c54 -3 91 8 153 24z" />
    <glyph glyph-name="asciicircum" unicode="^" horiz-adv-x="263" 
d="M158 689c42 -100 81 -157 144 -234l-51 -7c-41 68 -57 93 -100 160c-42 -68 -57 -90 -99 -159l-52 4c62 77 108 135 151 235z" />
    <glyph glyph-name="quotedbl" unicode="&#x22;" horiz-adv-x="95" 
d="M40 643l64 -13c-5 -10 -38 -108 -76 -182l-28 7s28 107 40 188v0zM128 643l64 -13c-5 -10 -38 -108 -76 -182l-28 7s28 107 40 188z" />
    <glyph glyph-name="quotesingle" unicode="'" horiz-adv-x="79" 
d="M40 643l64 -13c-5 -10 -38 -108 -76 -182l-28 7s28 107 40 188z" />
    <glyph glyph-name="comma" unicode="," horiz-adv-x="121" 
d="M67 99c73 -23 -15 -154 -33 -166c-12 -7 11 63 -2 67c-25 8 -38 37 -28 64s39 43 63 35z" />
    <glyph glyph-name="period" unicode="." horiz-adv-x="124" 
d="M67 101c25 -8 38 -37 28 -64s-38 -43 -63 -35s-38 36 -28 64c10 27 38 42 63 35z" />
    <glyph glyph-name="a" unicode="a" horiz-adv-x="534" 
d="M217 427v0c-91 -36 -123 -290 -68 -317c113 -55 162 355 68 317zM605 96l9 -23c-176 -103 -289 -61 -333 61c-38 -82 -100 -142 -182 -133c-141 14 -133 402 41 491c53 27 110 26 145 -20c1 -2 2 -3 3 -5c4 14 8 27 12 41c90 -28 112 -45 109 -58
c-76 -319 -35 -480 196 -354z" />
    <glyph glyph-name="u" unicode="u" horiz-adv-x="503" 
d="M142 105c47 12 103 331 127 409c90 -28 112 -45 109 -58c-76 -319 -35 -480 196 -354l9 -22c-181 -107 -348 -44 -337 207c-101 -523 -337 -263 -207 230c91 -28 113 -45 109 -58c-49 -181 -42 -364 -6 -354z" />
    <glyph glyph-name="v" unicode="v" horiz-adv-x="258" 
d="M95 122c26 89 125 328 172 387c0 0 28 7 54 -16c-71 -61 -172 -295 -213 -486c-9 -17 -76 -3 -86 27c-32 98 -27 324 10 468c92 -28 117 -45 112 -57c-18 -50 -45 -208 -49 -323z" />
    <glyph glyph-name="space" unicode=" " horiz-adv-x="230" 
 />
    <glyph glyph-name="uni0025" unicode="%" horiz-adv-x="490" 
d="M444 451c-173 -198 -265 -259 -401 -425l-23 36c81 102 211 190 334 359c-41 -14 -75 -2 -98 13v0c-12 -70 -68 -138 -157 -132c-152 12 -116 261 31 278c36 4 60 -22 30 -29c-12 -2 -32 12 -56 4c-39 -12 -65 -63 -59 -121c6 -65 49 -114 96 -111c46 4 78 60 72 125
c-2 17 -6 34 -13 48c8 35 40 40 53 6v0s42 -106 134 -34c8 12 16 25 24 38c32 52 69 -13 33 -55zM375 242c165 -13 117 -291 -58 -278c-161 13 -112 292 58 278zM358 -14c47 3 79 59 73 124c-7 64 -50 114 -96 110s-79 -59 -72 -124c6 -65 49 -114 95 -110z" />
    <glyph glyph-name="a_alt1" horiz-adv-x="928" 
d="M217 430v0c-91 -37 -123 -291 -68 -318c113 -55 162 355 68 318zM515 0c-108 2 -177 34 -234 136c-38 -82 -100 -142 -182 -133c-141 14 -133 402 41 491c53 28 110 26 145 -20c1 -2 2 -3 3 -5c4 14 8 27 12 41c90 -28 112 -45 109 -58c-30 -127 -102 -423 107 -428
c167 4 372 291 263 495c242 -77 62 -525 -264 -519z" />
    <glyph glyph-name="a_alt2" horiz-adv-x="1158" 
d="M217 429v0c-91 -36 -123 -290 -68 -317c113 -55 162 355 68 317zM1109 84c19 -22 17 -67 -17 -149c-166 287 -349 192 -508 125c-52 -24 -96 -37 -133 -41h-4c-1 -1 -3 -1 -4 -1h-5c-82 -4 -129 40 -157 117c-38 -81 -100 -141 -182 -132c-141 14 -133 402 41 491
c53 27 110 26 145 -20c1 -2 2 -3 3 -5c4 14 8 27 12 41c90 -29 112 -45 109 -58c-45 -187 -49 -320 2 -372v0c1 -1 2 -2 2 -3c26 -24 64 -29 116 -13h1c147 55 388 241 579 20z" />
    <glyph glyph-name="b_alt1" horiz-adv-x="428" 
d="M250 437c-75 80 -205 -358 -80 -356c61 2 147 285 80 356v0zM118 741v0zM148 452c18 24 38 43 59 54c52 27 104 5 140 -42c109 -139 -7 -441 -129 -466c-216 -44 -235 211 -212 368c8 53 22 113 37 173c-301 0 -624 165 -927 -45c30 119 167 195 283 194
c222 -1 505 -139 652 -120c9 35 19 68 29 97c12 30 25 55 38 76v0c160 249 427 -88 54 -186v-1c-10 -34 -18 -68 -24 -102v0zM181 583c47 141 102 172 128 156c33 -21 17 -120 -128 -156z" />
    <glyph glyph-name="b_alt2" horiz-adv-x="428" 
d="M250 437c-76 80 -206 -358 -81 -356c61 2 148 285 81 356v0zM177 563c-11 -36 -21 -74 -30 -111c18 24 38 43 60 54c51 27 103 5 140 -42c108 -139 -8 -441 -129 -466c-217 -44 -235 211 -213 368c11 72 27 140 48 209c-222 150 -51 488 162 516
c193 25 342 -124 314 -317c-338 572 -723 -22 -468 -176c9 28 18 55 28 78c163 378 495 -22 88 -113v0zM186 591c139 28 164 115 140 145c-21 26 -80 9 -134 -131z" />
    <glyph glyph-name="c_alt" horiz-adv-x="966" 
d="M150 63c136 -105 576 195 762 33c40 -36 29 -83 33 -139c-246 240 -570 35 -794 39c-203 -1 -195 369 -7 487c57 36 126 35 179 5l-59 -96c-134 31 -208 -256 -114 -329z" />
    <glyph glyph-name="d_alt1" horiz-adv-x="533" 
d="M217 416v0c-91 -36 -123 -290 -68 -317c112 -55 165 356 68 317zM438 551v0c-23 -70 -37 -139 -49 -212c-41 -251 12 -365 217 -253l9 -22c-177 -105 -290 -62 -333 61c-38 -83 -101 -144 -184 -135c-140 14 -132 402 42 491c53 27 109 26 145 -20c0 -1 1 -2 2 -3
c6 28 14 55 21 82c-301 13 -616 190 -927 -8c34 118 174 188 290 183c222 -10 498 -160 646 -147c11 35 22 67 34 96s26 54 40 74v1v0c171 242 423 -105 47 -188zM448 578c140 29 164 120 138 147c-23 24 -82 1 -138 -147z" />
    <glyph glyph-name="d_alt2" horiz-adv-x="534" 
d="M217 416v0c-91 -36 -123 -290 -68 -317c113 -55 165 356 68 317zM324 589v0c9 27 18 52 27 75c13 29 26 54 41 74v1v0c170 242 423 -105 46 -188c-23 -70 -37 -139 -49 -212c-40 -251 13 -365 218 -253l9 -22c-177 -105 -290 -62 -334 61c-38 -83 -100 -144 -183 -135
c-141 14 -133 402 41 491c53 27 110 26 145 -20c1 -1 2 -2 2 -3c7 28 14 55 22 82l8 27c-207 153 -37 480 173 507c193 25 342 -123 314 -317c-332 565 -712 -3 -480 -168zM448 578c135 28 163 113 141 144c-20 28 -82 10 -141 -144z" />
    <glyph glyph-name="e_alt" horiz-adv-x="971" 
d="M177 29v0c123 -34 496 189 691 105c62 -27 81 -112 82 -175c-260 254 -666 11 -822 42c-181 35 -166 405 28 495c164 76 305 -79 -33 -330c-1 -77 20 -128 54 -137zM125 208c140 130 164 195 144 207c-27 14 -129 -63 -144 -207z" />
    <glyph glyph-name="f_alt1" horiz-adv-x="400" 
d="M269 -20c218 14 412 -51 618 -75c189 -23 355 -6 531 76c-108 -212 -307 -200 -446 -181c-220 32 -507 159 -710 150c-111 -414 -458 -67 -111 19c19 74 33 170 42 263c-82 -8 -74 -8 -96 55c0 0 39 -21 99 -23c7 76 -1 402 138 378c124 -21 76 -238 -7 -367
c27 6 51 13 72 19c0 -11 0 -21 -6 -23c-27 -10 -53 -18 -83 -26c-9 -89 -22 -177 -41 -265zM314 291c80 134 74 299 53 293c-34 -9 -49 -251 -53 -293zM142 -64c-97 -31 -117 -89 -103 -112c14 -25 65 -11 103 112z" />
    <glyph glyph-name="f_alt2" horiz-adv-x="402" 
d="M265 -39c-1 -2 -1 -4 -2 -6c240 -74 -49 -492 -288 -389c-65 28 -128 99 -135 193c266 -297 643 96 417 173c-118 -383 -447 -46 -106 39c19 73 33 170 42 262c-82 -7 -74 -7 -96 56c0 0 40 -21 99 -23c7 76 -1 401 138 378c124 -21 76 -237 -6 -366c26 6 51 12 71 19
c1 -12 0 -22 -6 -24c-27 -9 -53 -17 -83 -25c-10 -97 -23 -192 -45 -287zM314 294c80 134 74 298 53 292c-34 -9 -49 -250 -53 -292zM142 -62c-104 -33 -119 -98 -99 -117c18 -17 64 3 99 117z" />
    <glyph glyph-name="g_alt1" 
d="M217 427c-91 -36 -123 -290 -68 -317c112 -55 171 358 68 317zM337 -52c-109 -429 -464 -78 -114 9c8 34 16 74 23 117c-37 -49 -87 -80 -147 -73c-141 14 -133 402 41 491c52 27 106 26 142 -16c0 11 0 22 1 31c63 -13 119 -27 118 -40c-2 -41 -21 -316 -58 -490
c404 38 726 -206 1175 3c-118 -231 -345 -196 -482 -174c-258 39 -497 164 -699 142zM214 -76c-102 -32 -119 -95 -101 -116c17 -19 65 -1 101 116z" />
    <glyph glyph-name="g_alt2" 
d="M217 427v0c-91 -36 -123 -290 -68 -317c112 -55 170 358 68 317zM332 -67v0c-113 -406 -456 -62 -110 24c9 34 16 74 23 117c-37 -49 -87 -80 -147 -73c-140 14 -132 402 42 491c51 27 106 26 141 -16c1 11 1 22 1 31c64 -13 119 -27 118 -40c-8 -164 -26 -351 -62 -511
c267 -60 -29 -498 -273 -393c-64 28 -127 99 -135 192c272 -302 659 113 402 178zM213 -76c-102 -32 -119 -95 -101 -116c18 -19 65 0 101 116z" />
    <glyph glyph-name="h_alt1" horiz-adv-x="486" 
d="M556 97v0l9 -22c-378 -223 -343 222 -343 240c-39 -63 -69 -166 -116 -308c-15 -17 -76 -3 -85 27c-43 154 -5 375 46 541c-224 150 -52 488 161 515c193 25 343 -123 314 -317c-337 573 -723 -21 -468 -175c9 28 19 55 28 78c164 378 495 -23 87 -113
c-43 -131 -82 -336 -90 -441c35 105 132 361 179 362c26 1 84 -22 81 -33c-75 -319 -34 -480 197 -354zM199 591c139 28 164 115 140 145c-22 26 -81 8 -134 -131c-2 -5 -4 -10 -6 -14z" />
    <glyph glyph-name="h_alt2" horiz-adv-x="487" 
d="M558 97v0l9 -22c-378 -223 -344 222 -343 240c-39 -63 -69 -166 -116 -308c-14 -16 -76 -3 -85 27c-41 146 -9 355 38 518c-301 13 -616 190 -927 -8c34 118 174 188 290 183c222 -10 498 -160 646 -147c11 35 22 67 34 96c164 378 495 -23 87 -113
c-44 -131 -82 -336 -91 -441c36 105 133 361 180 362c25 1 84 -22 81 -33c-76 -319 -35 -480 197 -354zM201 591c136 27 163 114 140 144c-21 27 -82 7 -140 -144z" />
    <glyph glyph-name="i_alt1" horiz-adv-x="631" 
d="M107 709v0c90 -28 104 -64 101 -76c-10 -44 -31 -105 -43 -148c-146 39 -58 224 -58 224zM305 5c294 38 442 444 214 516c108 -204 -97 -491 -264 -494c-78 1 -117 45 -134 105c-14 69 -3 175 29 308c3 13 -19 29 -109 58c-54 -175 -53 -327 -1 -414
c53 -88 174 -91 265 -79z" />
    <glyph glyph-name="i_alt2" horiz-adv-x="858" 
d="M180 41v0c137 -49 427 303 666 27c19 -22 16 -67 -18 -149c-250 434 -504 3 -717 93c-116 50 -142 243 -70 478c90 -29 112 -45 109 -58c-52 -217 -49 -361 30 -391zM165 477c-146 39 -58 224 -58 224c90 -28 104 -64 101 -76c-10 -44 -31 -105 -43 -148z" />
    <glyph glyph-name="j_alt1" horiz-adv-x="355" 
d="M330 497c-150 18 -89 214 -89 214c94 -16 112 -49 111 -62c-4 -44 -17 -108 -22 -152zM262 -50c-112 -413 -458 -66 -111 20c39 152 57 404 57 509c64 -14 119 -27 119 -40c-8 -149 -26 -313 -58 -459c223 17 421 -49 631 -74c29 -4 60 -7 90 -8c137 -8 281 9 441 84
c-109 -212 -308 -200 -446 -181c-13 2 -25 4 -37 6c-16 2 -31 5 -47 8c-234 45 -452 150 -639 135zM142 -63c-106 -34 -120 -100 -98 -118c18 -15 64 6 98 118z" />
    <glyph glyph-name="j_alt2" horiz-adv-x="356" 
d="M329 496c-149 18 -88 214 -88 214c93 -16 111 -49 110 -62c-4 -44 -16 -108 -22 -152zM257 -68c-117 -386 -448 -48 -106 37c39 152 56 404 57 509c64 -14 119 -27 118 -40c-7 -150 -25 -338 -63 -483c252 -68 -40 -494 -281 -390c-65 27 -128 98 -135 192
c269 -299 650 103 410 175zM142 -64c-102 -32 -119 -94 -101 -115c16 -20 65 -3 101 115z" />
    <glyph glyph-name="k_alt1" horiz-adv-x="401" 
d="M187 563v0c-43 -130 -83 -306 -94 -441c36 105 133 361 180 362c26 1 35 -1 47 -1c0 0 -66 -74 -103 -160c-14 -161 65 -346 299 -235l5 -13c-231 -136 -329 -29 -370 79c-16 -45 -33 -94 -50 -147c9 -17 -76 -3 -85 27c-38 136 1 378 41 518c-301 13 -617 191 -928 -8
c34 119 174 189 290 183c223 -10 499 -159 647 -146c11 34 22 67 33 96c164 377 496 -24 88 -114zM197 591c132 27 161 110 141 142c-18 30 -82 14 -141 -142z" />
    <glyph glyph-name="k_alt2" horiz-adv-x="399" 
d="M186 563v0c-43 -130 -83 -307 -93 -441c36 105 132 361 179 362c26 1 35 -1 48 -1c0 0 -67 -75 -104 -160c-13 -161 79 -366 298 -233l6 -15c-230 -136 -329 -29 -370 78c-16 -45 -33 -93 -50 -146c-21 -16 -76 -3 -84 27c-41 141 -3 378 52 555
c-185 157 -18 471 186 497c193 25 343 -123 314 -317c-325 553 -696 19 -492 -157c7 23 15 44 23 64c164 378 495 -23 87 -113zM196 591c136 27 163 114 140 144c-21 27 -82 7 -140 -144z" />
    <glyph glyph-name="m_alt1" horiz-adv-x="1077" 
d="M933 517c242 -77 62 -526 -264 -519c-81 1 -138 5 -186 58c-60 63 -61 180 -61 259c-48 -78 -59 -139 -89 -223c-14 -38 -23 -75 -59 -35c-72 81 -60 247 -60 258c-38 -63 -69 -166 -116 -308c-19 -17 -76 -3 -84 27c-28 98 -11 323 33 468c90 -28 114 -45 109 -57
c-21 -51 -56 -209 -65 -323c36 105 133 361 180 362c25 1 83 -22 81 -33c-27 -113 -39 -206 -33 -274c43 120 120 306 160 307c25 1 83 -22 81 -33c-30 -125 -97 -425 110 -429c167 3 372 291 263 495z" />
    <glyph glyph-name="m_alt2" horiz-adv-x="1298" 
d="M678 63c146 54 387 241 579 20c19 -23 16 -68 -18 -149c-245 424 -528 13 -717 92c-98 48 -101 195 -100 289c-48 -78 -59 -138 -89 -222c-14 -39 -23 -76 -59 -36c-73 81 -60 247 -60 258c-39 -63 -69 -166 -116 -308c-19 -17 -76 -3 -84 27c-28 98 -12 324 32 468
c91 -28 114 -45 110 -57c-21 -50 -56 -208 -65 -323c36 105 132 361 179 362c26 1 84 -22 82 -33c-27 -113 -39 -206 -34 -274c44 120 120 306 161 307c25 1 83 -22 81 -33c-24 -100 -104 -470 118 -388z" />
    <glyph glyph-name="n_alt1" horiz-adv-x="870" 
d="M352 452c-22 -94 -53 -252 -18 -343c19 -50 58 -85 127 -86c167 3 373 290 264 494c230 -73 78 -485 -221 -517c-242 -26 -292 96 -289 315c-39 -63 -69 -166 -116 -308c-7 -17 -76 -3 -85 27c-28 98 -11 324 33 469c91 -29 114 -46 109 -58c-21 -50 -55 -208 -65 -323
c36 105 133 361 180 362c26 1 84 -22 81 -32z" />
    <glyph glyph-name="n_alt2" horiz-adv-x="1096" 
d="M1031 -66c-244 424 -527 13 -717 92c-116 58 -100 277 -99 289c-39 -63 -69 -166 -116 -308c-7 -17 -76 -3 -85 27c-28 98 -11 324 33 469c90 -29 114 -46 109 -58c-21 -50 -56 -208 -65 -323c36 105 133 361 180 362c25 1 84 -22 81 -32c-24 -102 -105 -471 118 -389
c147 54 388 241 579 20c19 -22 17 -67 -18 -149z" />
    <glyph glyph-name="o_alt1" horiz-adv-x="687" 
d="M338 431c-244 97 -283 -374 -154 -358c92 12 141 163 125 231c-129 4 -69 132 -1 104c34 -14 47 -47 50 -84c198 27 262 138 273 261c27 -46 56 -143 14 -189c-66 -73 -219 -96 -287 -96c-1 -41 -12 -80 -21 -110c-33 -105 -107 -195 -217 -190c-159 7 -169 395 23 493
c58 30 122 32 164 -12c12 -14 23 -30 31 -50z" />
    <glyph glyph-name="o_alt2" horiz-adv-x="971" 
d="M338 431c-244 97 -283 -374 -154 -358c92 12 141 163 125 231c-130 4 -69 132 -1 104c31 -13 45 -41 49 -74c198 49 439 155 543 25c28 -34 28 -84 42 -126c-177 172 -392 122 -584 78c1 -43 -11 -90 -21 -121c-33 -105 -107 -195 -217 -190c-159 7 -169 395 23 493
c58 30 122 32 164 -12c12 -14 23 -30 31 -50z" />
    <glyph glyph-name="p_alt1" horiz-adv-x="454" 
d="M278 438c-76 80 -205 -358 -81 -356c61 1 148 285 81 356zM7 -51c-8 210 52 513 82 598c46 -4 120 -26 114 -39c-3 -7 -7 -20 -12 -36c14 15 29 27 44 35c52 27 103 5 140 -42c121 -154 -36 -510 -169 -464c-44 15 -73 47 -90 89c-2 -10 -18 -136 -16 -136
c187 -86 62 -257 -29 -205c-39 22 -58 89 -63 175c-396 -48 -901 -380 -1125 56c268 -214 761 -57 1124 -31zM92 -75c-16 -128 20 -152 45 -133c29 21 43 94 -45 133z" />
    <glyph glyph-name="q_alt1" horiz-adv-x="438" 
d="M217 443c-91 -36 -123 -290 -68 -317c109 -53 169 358 68 317zM-914 4c271 -220 778 -56 1142 -36c-5 34 -6 68 -4 97c-34 -34 -76 -53 -126 -48c-140 14 -132 402 42 491c53 27 109 26 145 -20c9 -12 16 -27 22 -44c9 26 17 50 25 69c90 -28 104 -64 101 -76
c-26 -100 -64 -218 -83 -331c-9 -49 -13 -97 -14 -140c212 -57 66 -238 -45 -143c-30 26 -49 72 -59 121c-399 -35 -921 -386 -1146 60zM336 -61c4 -105 53 -105 71 -79c15 23 8 66 -71 79z" />
    <glyph glyph-name="s_alt" horiz-adv-x="358" 
d="M114 244c-11 93 -14 282 107 265c45 -6 96 -29 107 -77c26 -119 -73 -294 -72 -299c24 -203 -15 -322 -150 -274c-289 103 -642 88 -907 -100c12 82 43 138 92 153c251 76 543 59 794 -17c117 -35 47 198 29 349zM247 176c71 168 59 249 35 247c-23 -2 -58 -86 -35 -247z
" />
    <glyph glyph-name="t_alt1" horiz-adv-x="289" 
d="M362 81l9 -22c-259 -153 -381 9 -349 275c5 45 15 95 28 143c-30 8 -49 14 -49 14l-1 27s23 -5 57 -10c18 64 37 124 52 166c91 -29 105 -64 101 -77c-9 -34 -18 -67 -27 -100c302 -31 492 334 291 469c-21 14 201 9 195 -149c-6 -148 -227 -372 -496 -355
c-13 -47 -25 -100 -33 -151c-35 -234 23 -338 222 -230z" />
    <glyph glyph-name="u_alt" horiz-adv-x="1025" 
d="M370 29c-46 21 -82 52 -104 93c-19 41 -28 93 -25 159c-101 -523 -332 -247 -202 246c90 -29 112 -45 109 -58c-50 -181 -47 -380 -10 -371c46 12 102 331 126 409c91 -28 112 -45 109 -57c-33 -140 -92 -360 85 -424c269 -95 584 144 462 214c123 24 150 -107 -8 -178
c-156 -70 -396 -99 -542 -33z" />
    <glyph glyph-name="y_alt1" horiz-adv-x="385" 
d="M297 -25c218 14 413 -50 619 -75c30 -4 60 -7 90 -8c137 -7 281 10 441 84c-109 -212 -307 -200 -446 -180c-13 2 -25 3 -37 5c-16 3 -31 5 -47 8c-229 44 -443 146 -627 136c-112 -414 -459 -67 -111 19c14 56 25 124 34 194c-109 -360 -293 -91 -174 361
c90 -28 112 -45 109 -58c-50 -181 -47 -380 -10 -371c38 10 92 241 98 383c0 13 119 -30 118 -40c-7 -148 -25 -312 -57 -458zM170 -69c-111 -35 -121 -106 -96 -120c20 -11 63 13 96 120z" />
    <glyph glyph-name="y_alt2" horiz-adv-x="385" 
d="M293 -44c249 -69 -42 -494 -283 -390c-65 27 -128 98 -135 192c268 -299 649 102 412 175c-116 -395 -452 -54 -108 31c14 56 25 124 34 194c-109 -360 -293 -91 -174 361c90 -28 112 -45 109 -57c-50 -182 -47 -381 -10 -372c38 11 92 241 98 383c0 13 119 -30 118 -40
c-8 -155 -27 -326 -61 -477zM170 -69c-109 -34 -121 -103 -97 -119c19 -13 63 10 97 119z" />
    <glyph glyph-name="l_alt1" horiz-adv-x="274" 
d="M346 81v0l9 -22c-246 -145 -368 -6 -352 237c5 85 27 182 55 272c-203 154 -34 479 175 506c193 25 343 -124 314 -317c-331 562 -709 0 -481 -166c8 24 16 47 25 69c164 377 496 -23 88 -113v-1c-19 -70 -38 -141 -50 -212c-43 -250 12 -365 217 -253zM188 574
c138 28 164 117 139 146c-21 25 -81 4 -139 -146z" />
    <glyph glyph-name="l_alt2" horiz-adv-x="270" 
d="M348 81v0l9 -22c-246 -145 -368 -6 -352 237c5 79 24 163 46 239c-301 13 -617 191 -928 -7c34 118 174 188 290 183c222 -11 499 -160 647 -147c10 35 22 67 33 96c164 377 496 -23 88 -113v-1c-19 -70 -38 -141 -50 -212c-43 -250 12 -365 217 -253zM190 574
c139 28 164 118 139 146c-22 25 -82 3 -139 -146z" />
    <glyph glyph-name="b_alt3" horiz-adv-x="807" 
d="M878 86l9 -22c-277 -164 -398 34 -340 334c-18 -8 -37 -10 -54 -6c-20 -27 -59 -57 -107 -53c6 -144 -82 -315 -172 -334c-300 -60 -218 405 -167 573c-222 150 -51 488 162 515c193 26 342 -123 314 -316c-338 572 -724 -22 -468 -176c9 28 18 55 28 78
c163 378 494 -22 89 -112c-10 -36 -20 -72 -28 -108c17 24 38 43 59 54c52 27 104 5 140 -42c23 -29 36 -65 41 -104c32 -1 61 16 78 37c-48 32 -73 112 -27 210l87 -50c-68 -189 37 -169 50 -66c15 -4 115 -34 109 -57c-75 -319 -34 -481 197 -355zM315 744
c-24 18 -80 -10 -135 -150c145 29 166 127 135 150zM165 89c61 1 148 284 81 356c-76 80 -205 -359 -81 -356z" />
    <glyph glyph-name="b_alt4" horiz-adv-x="810" 
d="M249 445c-75 80 -205 -359 -80 -356c61 1 148 284 80 356zM48 571c16 60 34 122 69 176c160 244 423 -91 52 -189c-8 -32 -14 -65 -22 -99c18 24 38 43 60 54c51 27 103 5 140 -42c22 -29 35 -65 40 -104c33 -1 62 16 78 37c-48 32 -73 112 -27 210l88 -50
c-68 -189 37 -169 50 -66c15 -4 115 -33 109 -57c-76 -319 -35 -481 196 -355l9 -22c-277 -164 -397 34 -339 334c-19 -8 -37 -10 -54 -6c-21 -27 -59 -57 -107 -53c5 -144 -82 -315 -173 -334c-288 -58 -220 370 -177 537c-301 1 -624 165 -927 -45c30 119 167 195 283 194
c222 -1 505 -139 652 -120zM178 586c146 36 161 136 127 156c-26 15 -80 -16 -127 -156z" />
    <glyph glyph-name="b_alt5" horiz-adv-x="751" 
d="M624 -56v0c-128 -35 -127 -116 -94 -134c27 -14 74 12 94 134zM180 594v0c147 29 167 130 133 151c-25 16 -79 -14 -133 -151zM170 566v0c-10 -36 -18 -70 -27 -107c18 24 38 43 60 54c51 27 103 5 140 -42c23 -29 35 -65 40 -104c29 -1 56 12 73 31
c-45 42 -61 122 -16 194l88 -50c-74 -194 95 -124 103 -65c14 -4 89 -49 70 -63c0 0 -96 -147 -92 -151c90 -86 138 -178 131 -303c-15 -133 -120 -227 -202 -211c-89 17 -119 193 90 232c-3 133 -132 193 -131 197c13 50 90 152 114 217c-48 -32 -93 -34 -129 -16
c-21 -23 -55 -43 -96 -40c5 -144 -82 -315 -172 -334c-300 -61 -218 405 -168 573c-222 150 -50 487 163 515c192 26 342 -123 314 -317c-338 573 -723 -20 -469 -174c166 506 538 58 116 -36zM246 445c-76 80 -205 -359 -81 -356c61 1 148 284 81 356z" />
    <glyph glyph-name="b_alt6" horiz-adv-x="755" 
d="M629 -55v0c-118 -34 -127 -105 -101 -129c24 -24 79 -5 101 129zM48 570v0c16 63 37 128 73 181c161 235 418 -96 50 -193l-1 -1c-10 -33 -14 -65 -22 -98c18 24 38 43 60 54c51 27 103 5 140 -42c22 -29 35 -65 40 -104c29 -1 55 13 73 31c-45 42 -61 122 -16 194
l87 -50c-74 -194 96 -124 104 -64c14 -5 88 -49 70 -64c0 0 -96 -146 -92 -151c90 -86 138 -178 130 -303c-14 -133 -119 -227 -201 -211c-89 17 -119 193 90 233c-4 132 -132 193 -131 197c13 49 90 151 113 217c-47 -33 -93 -35 -128 -17c-22 -22 -55 -43 -96 -40
c5 -144 -82 -315 -173 -334c-289 -58 -219 370 -178 537c-301 1 -623 165 -926 -45c30 119 167 195 283 194c222 -1 503 -139 651 -121zM179 586v0c140 34 160 128 131 153c-24 21 -81 -6 -131 -153zM250 445c-75 80 -205 -359 -80 -356c61 1 148 284 80 356z" />
    <glyph glyph-name="d_alt3" horiz-adv-x="946" 
d="M221 428v0c-91 -36 -123 -290 -68 -317c112 -55 165 356 68 317zM451 592v0c146 29 167 127 135 150c-25 17 -81 -10 -135 -150zM441 564c-23 -69 -36 -141 -48 -213c-10 -56 -44 -304 71 -288c111 16 140 224 147 331c-55 26 -87 110 -37 215l87 -50
c-68 -189 37 -169 51 -66c14 -4 114 -34 109 -57c-76 -319 -35 -481 196 -355l9 -22c-277 -164 -398 34 -340 334c-18 -8 -36 -10 -54 -6c-7 -101 -20 -366 -185 -370c-80 -2 -134 43 -161 120c-38 -83 -101 -144 -184 -135c-140 14 -132 402 42 491c53 27 109 26 145 -20
c0 -1 1 -3 2 -4c6 29 13 56 21 84c-301 13 -617 190 -928 -8c34 119 174 188 290 183c222 -10 499 -160 646 -147c166 534 547 77 121 -17z" />
    <glyph glyph-name="d_alt4" horiz-adv-x="942" 
d="M217 428v0c-91 -36 -123 -290 -68 -317c113 -55 165 356 68 317zM683 393v0c-19 -8 -37 -10 -54 -6c-8 -101 -21 -366 -185 -370c-80 -2 -135 43 -162 120c-38 -83 -100 -144 -183 -135c-141 14 -133 402 41 491c53 27 110 26 145 -20c1 -1 2 -3 3 -4c8 39 17 73 28 111
c-206 153 -36 480 173 508c193 25 342 -124 314 -318c-332 565 -712 -3 -479 -167c163 498 538 55 114 -39c-29 -86 -133 -522 22 -501c111 16 140 224 148 331c-55 26 -87 110 -38 215l88 -50c-68 -189 37 -169 50 -66c15 -4 115 -34 109 -57c-76 -319 -35 -481 196 -355
l9 -22c-277 -164 -397 34 -339 334zM448 592c141 28 165 121 137 147c-23 22 -82 -2 -137 -147z" />
    <glyph glyph-name="d_alt5" horiz-adv-x="873" 
d="M217 427v0c-91 -36 -123 -291 -68 -318c112 -54 165 357 68 318zM746 -56v0c-134 -38 -126 -125 -88 -136c27 -9 70 22 88 136zM862 -41v0c-15 -133 -119 -226 -202 -211c-88 17 -119 194 90 233c-3 133 -132 193 -131 197c14 50 90 151 114 217
c-38 -26 -75 -33 -106 -25c-8 -110 -27 -350 -184 -354c-80 -3 -134 43 -162 120c-37 -83 -100 -144 -183 -136c-140 15 -132 403 42 492c53 27 109 26 144 -21l3 -3c8 38 17 73 29 111c-207 153 -37 480 173 507c192 25 342 -123 313 -317c-332 565 -712 -3 -479 -167
c9 26 18 51 27 74c162 374 489 -25 87 -113c-22 -67 -39 -144 -48 -214c-8 -56 -44 -303 70 -287c107 15 138 206 147 316c-65 32 -96 128 -44 214l88 -51c-74 -193 95 -123 103 -64c15 -5 89 -49 71 -64c0 0 -96 -146 -92 -150c90 -87 137 -179 130 -304zM447 591
c147 29 167 128 134 150c-25 17 -81 -12 -134 -150z" />
    <glyph glyph-name="d_alt6" horiz-adv-x="871" 
d="M215 427v0c-91 -37 -123 -291 -68 -318c113 -55 165 357 68 318zM446 590v0c142 29 165 123 136 148c-23 21 -81 -3 -136 -148zM436 563v0c-23 -70 -37 -142 -49 -214c-10 -56 -44 -303 71 -287c106 15 137 206 146 316c-65 32 -96 128 -43 213l87 -50
c-74 -194 96 -124 104 -64c14 -5 89 -49 70 -64c0 0 -96 -146 -92 -151c90 -86 138 -178 130 -303c-14 -133 -119 -227 -201 -211c-89 17 -119 193 90 233c-3 132 -132 193 -131 197c13 49 90 151 114 217c-39 -27 -75 -33 -106 -25c-8 -110 -27 -351 -184 -355
c-80 -2 -135 44 -162 120c-38 -82 -101 -143 -183 -135c-141 15 -133 403 41 492c53 27 109 25 145 -21l2 -3c6 27 13 56 21 84c-301 12 -617 190 -928 -8c34 118 174 188 290 183c223 -11 499 -160 647 -147c11 35 22 67 33 96c162 372 498 -23 88 -113zM745 -56
c-121 -34 -127 -109 -99 -131c26 -20 78 1 99 131z" />
    <glyph glyph-name="g_alt3" horiz-adv-x="820" 
d="M217 428v0c-91 -37 -123 -291 -68 -318c112 -54 171 359 68 318zM561 393v0c-18 -8 -37 -10 -54 -6c-21 -29 -63 -60 -116 -51c-9 -106 -25 -251 -48 -358c404 37 726 -207 1175 3c-118 -232 -345 -196 -482 -175c-258 39 -497 164 -699 142c-109 -429 -464 -77 -114 9
c8 34 16 74 23 118c-37 -49 -87 -80 -147 -74c-141 15 -133 403 41 492c52 26 106 25 142 -17c0 12 0 22 1 32c63 -14 119 -27 118 -40c-1 -14 -3 -53 -8 -105c35 -4 65 14 83 37c-48 31 -73 111 -27 209l87 -50c-68 -189 37 -169 50 -66c15 -4 115 -33 109 -57
c-75 -319 -34 -481 197 -355l9 -22c-277 -163 -398 34 -340 334zM214 -76c-101 -32 -119 -93 -102 -114s65 -4 102 114z" />
    <glyph glyph-name="g_alt4" horiz-adv-x="845" 
d="M218 427v0c-91 -36 -123 -291 -68 -317c112 -55 170 358 68 317zM585 393v0c-18 -8 -37 -10 -54 -7c-25 -32 -75 -68 -138 -45c-10 -129 -27 -265 -54 -385c267 -60 -29 -498 -273 -393c-64 27 -127 99 -135 192c272 -302 659 113 402 178c-113 -406 -456 -62 -110 24
c9 33 16 74 23 117c-37 -49 -87 -80 -147 -73c-140 14 -132 402 42 491c51 26 106 26 141 -17c1 12 1 23 1 32c64 -13 119 -27 118 -40c-1 -32 -3 -66 -6 -100c43 -15 84 5 105 32c-49 32 -74 112 -28 210l88 -51c-68 -188 37 -169 50 -65c15 -5 115 -34 109 -58
c-75 -319 -34 -480 197 -355l9 -22c-278 -163 -398 35 -340 335zM214 -76c-102 -32 -119 -95 -101 -115c17 -20 65 -2 101 115z" />
    <glyph glyph-name="h_alt3" horiz-adv-x="865" 
d="M606 393v0c-19 -8 -37 -10 -54 -6c-9 -126 -30 -371 -158 -374c-201 -5 -178 287 -178 302c-38 -63 -69 -166 -115 -308c-13 -15 -77 -3 -85 27c-40 142 0 397 46 542c-221 150 -49 487 163 515c193 25 343 -124 314 -317c-336 572 -722 -19 -469 -174
c18 52 38 103 69 150c170 245 424 -103 47 -186c-40 -121 -83 -319 -93 -442c36 105 133 361 180 362c25 1 83 -22 81 -33c-51 -213 -49 -355 26 -389c124 -56 146 267 151 332c-55 26 -87 110 -38 215l88 -50c-68 -189 37 -169 50 -66c15 -4 115 -34 109 -57
c-76 -319 -35 -481 196 -355l9 -22c-277 -164 -397 34 -339 334zM196 591c140 28 165 117 139 146c-22 25 -80 6 -133 -132z" />
    <glyph glyph-name="h_alt4" horiz-adv-x="868" 
d="M55 537v0c-301 13 -617 190 -928 -8c34 118 174 188 290 183c223 -10 499 -160 647 -147c11 35 22 68 33 96c164 378 496 -23 88 -113c-42 -126 -79 -297 -90 -426c36 105 133 361 180 362c25 1 84 -22 81 -33c-50 -213 -49 -355 26 -389c124 -56 146 267 151 332
c-55 26 -87 110 -38 215l88 -50c-68 -189 37 -169 50 -66c15 -4 115 -34 109 -57c-76 -319 -35 -481 197 -355l9 -22c-278 -164 -398 34 -340 334c-18 -8 -37 -10 -54 -6c-9 -126 -30 -371 -158 -374c-201 -5 -178 287 -177 302c-39 -63 -69 -166 -116 -308
c-13 -15 -76 -3 -85 27c-40 141 -5 358 37 503zM195 576c147 29 166 129 133 150c-26 16 -81 -13 -133 -150z" />
    <glyph glyph-name="h_alt5" horiz-adv-x="800" 
d="M674 -56v0c-118 -33 -127 -104 -102 -129c25 -23 80 -5 102 129zM188 563v0c-42 -127 -82 -311 -93 -441c36 104 133 360 180 362c25 0 84 -23 81 -33c-51 -213 -49 -356 26 -390c116 -52 143 230 150 318c-64 32 -95 128 -43 213l88 -51c-74 -193 96 -123 104 -64
c14 -4 88 -49 70 -63c0 0 -96 -147 -92 -151c90 -87 138 -179 130 -303c-15 -133 -119 -227 -201 -211c-89 16 -119 193 90 232c-4 133 -132 193 -131 197c13 50 90 151 113 217c-38 -27 -76 -32 -107 -24c-10 -129 -34 -355 -157 -358c-201 -6 -178 287 -178 301
c-38 -62 -69 -165 -115 -307c-13 -16 -77 -4 -85 26c-42 150 0 386 48 542c-224 149 -52 488 161 515c193 25 343 -123 314 -317c-337 573 -723 -21 -468 -175c9 28 18 55 28 78c164 378 495 -23 87 -113zM198 591c154 31 168 134 130 152c-26 13 -77 -16 -124 -138z" />
    <glyph glyph-name="h_alt6" horiz-adv-x="799" 
d="M672 -56c-109 -31 -124 -95 -105 -123c21 -32 82 -20 105 123zM183 547c-41 -122 -79 -299 -89 -426c36 105 133 361 180 362c25 1 83 -22 81 -32c-51 -213 -49 -356 26 -390c116 -52 143 230 149 318c-64 32 -94 128 -42 213l88 -51c-74 -193 95 -123 103 -64
c15 -4 89 -49 71 -63c0 0 -96 -147 -92 -151c90 -87 137 -179 130 -304c-15 -132 -119 -226 -201 -211c-89 17 -120 194 89 233c-3 133 -132 193 -131 197c14 50 91 151 114 217c-39 -27 -76 -33 -107 -24c-10 -129 -34 -355 -158 -359c-201 -5 -177 288 -177 302
c-38 -63 -69 -165 -116 -308c-12 -15 -76 -3 -84 27c-38 134 -6 358 36 503c-301 13 -617 191 -928 -7c34 118 174 188 290 182c222 -10 499 -159 647 -146c10 34 22 67 33 96c164 377 496 -24 88 -114zM192 575c155 31 169 139 128 153c-27 9 -78 -24 -128 -153z" />
    <glyph glyph-name="j_alt3" horiz-adv-x="771" 
d="M334 500v0c-150 19 -89 214 -89 214c93 -15 112 -49 111 -62c-5 -44 -17 -108 -22 -152zM512 393v0c-59 -300 62 -498 339 -334l-9 22c-231 -126 -272 35 -196 354c5 24 -95 53 -109 58c-13 -103 -118 -123 -51 66l-87 50c-46 -98 -21 -178 27 -210
c-20 -26 -59 -46 -100 -33c2 26 3 51 5 76c0 13 -55 27 -119 40c0 -105 -18 -356 -57 -509c-342 -84 -10 -423 106 -37c241 -71 -141 -474 -410 -175c8 -93 71 -165 135 -192c242 -104 534 323 282 391c0 1 1 2 1 4c27 118 45 250 55 376c61 -20 109 15 133 46
c18 -3 36 -1 55 7zM146 -60c-37 -121 -88 -136 -103 -113c-14 23 5 82 103 113z" />
    <glyph glyph-name="j_alt4" horiz-adv-x="776" 
d="M330 501v0c-150 18 -89 213 -89 213c94 -15 112 -48 111 -61c-4 -45 -16 -108 -22 -152zM509 393v0c-58 -299 62 -497 340 -334l-9 22c-232 -126 -273 36 -197 355c6 24 -94 53 -109 58c-13 -104 -118 -123 -50 65l-88 51c-46 -99 -21 -179 27 -210
c-20 -27 -60 -47 -101 -33c2 25 4 51 5 75c1 13 -55 27 -119 41c0 -106 -18 -357 -57 -509c-347 -86 -1 -433 111 -20c187 14 405 -90 639 -135c16 -3 31 -6 47 -8c12 -2 24 -4 37 -6c138 -19 337 -31 446 181c-160 -75 -304 -92 -441 -85c-30 2 -61 5 -90 8
c-210 26 -408 92 -631 75c25 113 41 237 51 357c61 -21 111 14 135 46c17 -3 36 -2 54 6zM142 -59c-36 -117 -84 -135 -101 -116c-18 20 -1 83 101 116z" />
    <glyph glyph-name="k_alt3" horiz-adv-x="832" 
d="M188 563v0c-42 -128 -82 -309 -93 -441c36 105 133 361 180 362c25 1 34 -1 47 -1c0 0 -66 -74 -103 -160c-8 -88 28 -195 89 -242c117 -90 184 244 189 313c-55 27 -86 111 -37 216l87 -51c-67 -188 38 -169 51 -65c14 -5 114 -34 109 -58c-76 -319 -35 -481 196 -355
l9 -22c-277 -163 -398 35 -339 334c-19 -8 -37 -9 -55 -6c-4 -53 -32 -370 -181 -376c-106 -5 -156 69 -184 143c-16 -45 -33 -94 -50 -147c-6 -17 -76 -3 -85 27c-39 139 0 374 39 518c-301 13 -616 190 -926 -8c34 119 174 188 290 183c221 -10 496 -158 644 -147
c160 536 553 78 123 -17zM198 591c141 28 165 120 137 147c-22 22 -81 -1 -137 -147z" />
    <glyph glyph-name="k_alt4" horiz-adv-x="834" 
d="M324 483v0s-67 -74 -104 -160c-7 -88 28 -195 90 -242c116 -90 184 244 189 313c-55 27 -87 111 -38 216l88 -51c-68 -188 37 -169 50 -65c15 -5 115 -34 109 -58c-76 -319 -35 -481 197 -355l9 -22c-278 -163 -398 35 -340 334c-18 -8 -37 -9 -54 -6
c-4 -53 -32 -370 -182 -376c-105 -5 -156 69 -184 143c-16 -45 -33 -94 -50 -147c-6 -17 -76 -3 -84 27c-45 156 1 398 51 555c-186 158 -19 471 186 497c193 26 342 -123 314 -317c-326 553 -697 19 -493 -157c7 23 15 44 23 64c164 378 495 -23 87 -113
c-41 -124 -81 -312 -91 -441c36 105 132 361 179 362c26 1 35 -1 48 -1zM198 591c128 25 160 104 144 138c-16 35 -82 24 -144 -138z" />
    <glyph glyph-name="k_alt5" horiz-adv-x="769" 
d="M643 -56v0c-117 -33 -127 -103 -102 -128c24 -25 80 -7 102 128zM186 563v0c-42 -127 -82 -310 -92 -441c36 105 132 361 179 362c26 1 35 -1 48 -1c0 0 -67 -75 -104 -160c-7 -88 28 -195 90 -243c110 -85 177 214 187 302c-59 36 -86 128 -35 210l87 -51
c-74 -193 96 -123 104 -64c14 -4 89 -49 70 -63c0 0 -96 -147 -92 -151c90 -86 138 -179 130 -303c-14 -133 -119 -227 -201 -211c-89 17 -119 193 90 232c-4 133 -132 193 -131 197c13 50 90 151 113 217c-41 -28 -80 -33 -113 -22c-7 -80 -41 -356 -181 -362
c-106 -5 -156 69 -184 142c-16 -44 -33 -93 -50 -146c-6 -17 -76 -3 -85 27c-38 136 -3 369 40 518c-301 13 -616 190 -927 -8c34 118 174 188 290 183c222 -10 498 -160 646 -147c11 35 22 68 34 96c164 378 495 -23 87 -113zM196 591c152 30 168 136 130 152
c-27 11 -80 -21 -130 -152z" />
    <glyph glyph-name="k_alt6" horiz-adv-x="769" 
d="M643 -56v0c-119 -33 -127 -105 -101 -129c25 -23 79 -4 101 129zM67 589v0c-185 157 -18 471 186 497c193 25 343 -123 314 -317c-325 553 -696 19 -492 -157c7 22 15 44 23 64c164 378 495 -23 87 -113c-41 -124 -81 -313 -91 -441c35 105 132 361 179 362
c26 1 35 -1 48 -1c0 0 -67 -75 -104 -160c-7 -88 28 -195 89 -243c111 -85 178 214 188 302c-59 36 -86 128 -35 210l87 -51c-74 -193 96 -123 104 -64c14 -4 88 -49 70 -63c0 0 -96 -147 -92 -151c90 -86 138 -179 130 -303c-14 -133 -119 -227 -201 -211
c-89 17 -119 193 90 232c-4 133 -132 193 -131 197c13 50 90 151 113 217c-41 -28 -81 -33 -113 -22c-8 -80 -41 -356 -181 -362c-106 -5 -156 69 -184 142c-16 -44 -33 -93 -50 -146c-6 -17 -76 -3 -85 27c-41 147 4 404 51 555zM195 590c152 31 168 135 130 153
c-26 12 -79 -20 -130 -153z" />
    <glyph glyph-name="l_alt3" horiz-adv-x="682" 
d="M368 387v0c-9 -119 -62 -398 -204 -387c-126 10 -180 147 -158 335v0v0h1c7 67 23 136 42 199c-301 13 -617 191 -928 -8c34 119 174 189 290 183c222 -10 499 -159 646 -147c11 35 23 68 34 96c139 320 398 82 227 -53l79 -46c-68 -188 37 -169 50 -65
c15 -5 115 -34 109 -58c-75 -319 -34 -480 197 -354l9 -23c-278 -163 -398 35 -340 335c-18 -8 -37 -10 -54 -7zM302 594v0c-30 -20 -70 -37 -123 -49v-1c-16 -57 -32 -116 -43 -174c-3 -12 -5 -25 -7 -36c-76 -443 198 -319 218 60c-52 25 -83 102 -45 200zM188 573
c138 27 164 116 140 145c-22 26 -82 5 -140 -145z" />
    <glyph glyph-name="l_alt4" horiz-adv-x="682" 
d="M369 387v0c-9 -119 -63 -398 -205 -387c-119 9 -174 135 -160 307c7 87 29 178 55 261c-203 154 -34 479 175 506c193 25 342 -124 314 -317c-331 563 -710 0 -482 -166c8 24 17 47 25 69c140 320 399 81 226 -54l81 -47c-68 -188 37 -169 50 -65c14 -5 114 -34 109 -58
c-76 -319 -35 -480 196 -354l9 -23c-277 -163 -397 35 -339 335c-19 -8 -37 -10 -54 -7zM304 596v0c-31 -20 -71 -37 -124 -49l-1 -1c-23 -83 -45 -167 -56 -253c-53 -394 205 -266 224 101c-52 26 -83 103 -43 202zM189 574c146 30 166 128 134 150
c-25 18 -81 -10 -134 -150z" />
    <glyph glyph-name="l_alt5" horiz-adv-x="623" 
d="M344 384v0c-57 37 -81 127 -32 207l88 -51c-74 -193 95 -123 103 -64c15 -4 89 -49 71 -63c0 0 -97 -147 -92 -151c89 -86 137 -178 130 -303c-15 -133 -120 -227 -202 -211c-89 17 -119 193 90 232c-3 133 -132 193 -131 197c13 50 90 151 114 217
c-43 -29 -84 -33 -118 -21c-12 -124 -66 -385 -204 -374c-228 17 -159 385 -114 536c-300 14 -615 190 -924 -8c34 119 174 188 290 183c220 -10 494 -157 643 -147c10 33 23 65 37 97c163 375 495 -24 87 -114c-23 -69 -41 -141 -53 -214c-76 -439 193 -320 217 52z
M496 -57v0c-113 -31 -125 -98 -104 -125c22 -28 82 -14 104 125zM190 574c145 29 166 126 135 149c-25 19 -81 -9 -135 -149z" />
    <glyph glyph-name="l_alt6" horiz-adv-x="622" 
d="M495 -56v0c-121 -34 -127 -108 -99 -131c26 -20 78 1 99 131zM179 563v0c-32 -109 -65 -244 -68 -359c-6 -279 211 -149 232 181c-57 37 -81 127 -32 207l88 -51c-74 -193 95 -123 103 -64c15 -4 89 -49 71 -63c0 0 -97 -147 -92 -151c89 -86 137 -178 130 -303
c-15 -133 -120 -227 -202 -211c-89 17 -119 193 90 232c-3 133 -132 193 -131 197c13 50 90 151 114 217c-43 -29 -84 -33 -118 -21c-12 -124 -66 -385 -204 -374c-129 10 -183 154 -155 351c11 75 29 152 52 224c-224 149 -52 487 161 515c193 25 343 -123 314 -317
c-337 573 -723 -21 -468 -175c9 28 19 54 28 78c164 378 495 -23 87 -113zM189 590c145 30 166 123 136 149c-23 20 -79 -2 -130 -134z" />
    <glyph glyph-name="p_alt2" horiz-adv-x="842" 
d="M272 440c-75 80 -205 -358 -80 -356c61 1 147 285 80 356v0zM582 394c-18 -8 -37 -10 -54 -7c-22 -28 -63 -60 -116 -51c7 -165 -109 -368 -212 -333c-44 15 -73 47 -90 88c-1 -9 -17 -135 -16 -135c187 -86 62 -257 -28 -205c-40 22 -58 89 -64 175
c-396 -48 -901 -380 -1125 56c268 -214 761 -58 1124 -31c-8 210 52 513 82 597c46 -3 120 -26 115 -38c-4 -7 -8 -20 -13 -36c14 15 29 27 44 35c52 27 104 4 140 -43c23 -28 36 -64 41 -102c36 -5 68 13 87 36c-49 32 -74 112 -28 210l88 -51c-68 -188 37 -169 50 -65
c15 -5 115 -34 109 -58c-76 -319 -35 -480 197 -354l9 -22c-278 -164 -398 34 -340 334v0zM86 -73c-15 -123 17 -150 42 -136c31 18 50 96 -42 136z" />
    <glyph glyph-name="p_alt3" horiz-adv-x="784" 
d="M277 440v0c-76 80 -205 -358 -81 -356c61 1 148 285 81 356zM115 91v0c-2 -8 -20 -129 -17 -129c188 -86 63 -257 -28 -205c-39 22 -58 89 -64 175c-396 -48 -900 -380 -1124 56c267 -214 760 -57 1123 -31c-5 152 39 467 83 591c46 -3 120 -26 114 -38
c-3 -7 -7 -20 -12 -37c14 15 28 27 44 36c51 27 103 4 140 -43c22 -28 35 -64 40 -103c31 -1 58 14 75 33c-45 42 -61 123 -16 195l88 -51c-74 -193 95 -123 103 -64c15 -4 89 -49 70 -63c0 0 -96 -147 -91 -151c89 -86 137 -179 130 -303c-15 -133 -120 -227 -202 -211
c-89 17 -119 193 90 232c-3 133 -132 193 -131 197c13 50 90 151 114 217c-48 -33 -93 -34 -128 -16c-22 -24 -57 -47 -99 -43c6 -165 -110 -367 -212 -332c-44 15 -73 47 -90 88zM657 -57v0c-117 -33 -126 -102 -102 -128c24 -25 80 -7 102 128zM91 -67
c-16 -127 19 -151 44 -134c29 20 45 95 -44 134z" />
    <glyph glyph-name="q_alt2" horiz-adv-x="853" 
d="M216 443v0c-91 -36 -123 -291 -68 -317c109 -54 169 358 68 317zM593 392v0c-18 -7 -37 -9 -54 -6c-24 -31 -73 -67 -134 -47c-21 -75 -43 -155 -56 -233c-8 -50 -13 -97 -14 -140c212 -57 66 -238 -44 -143c-31 26 -49 72 -60 121c-399 -35 -920 -386 -1146 60
c271 -220 778 -57 1142 -36c-5 34 -6 68 -4 97c-34 -34 -76 -54 -126 -48c-140 14 -132 402 42 491c53 27 109 26 145 -20c9 -13 16 -27 22 -44c9 26 17 50 25 69c90 -28 104 -64 101 -76c-6 -23 -13 -48 -20 -73c39 -10 76 10 96 35c-49 32 -74 112 -28 210l88 -51
c-68 -188 37 -169 50 -65c15 -5 115 -34 109 -58c-75 -319 -34 -480 197 -355l9 -22c-278 -163 -398 35 -340 334zM335 -61c3 -98 46 -105 67 -84c20 21 18 69 -67 84z" />
    <glyph glyph-name="t_alt2" horiz-adv-x="559" 
d="M617 81v0l9 -22c-127 -74 -221 -73 -280 -22c-231 -113 -339 45 -309 297c7 57 20 118 36 179c-56 10 -72 16 -72 16l-1 32s26 -8 82 -19c13 46 28 90 43 132c90 -29 104 -64 100 -77c-6 -25 -13 -50 -20 -75c32 -5 68 -9 108 -13c17 63 37 123 52 165
c90 -28 104 -64 101 -76c-9 -35 -19 -68 -28 -101c302 -31 492 335 291 469c-21 14 201 9 195 -148c-6 -149 -226 -373 -496 -356c-12 -47 -24 -99 -32 -150c-36 -234 22 -339 221 -231zM197 493c-17 -60 -32 -120 -41 -182c-33 -213 12 -319 171 -254
c-47 58 -64 157 -50 277c5 45 15 95 27 144c-41 5 -76 10 -107 15z" />
    <glyph glyph-name="y_alt3" horiz-adv-x="790" 
d="M297 -16v0c218 15 413 -50 619 -75c30 -3 60 -6 90 -8c137 -7 281 10 441 84c-109 -211 -307 -200 -446 -180c-13 2 -25 4 -37 6c-16 2 -31 5 -47 8c-229 44 -443 145 -627 136c-112 -415 -459 -68 -111 19c14 55 25 124 34 194c-109 -361 -293 -92 -174 360
c90 -28 112 -45 109 -57c-50 -181 -47 -381 -10 -371c38 10 92 240 98 382c0 13 119 -30 118 -40c-1 -25 -3 -51 -5 -77c40 -11 78 9 98 35c-48 31 -73 111 -27 209l87 -50c-67 -189 38 -169 51 -66c14 -4 114 -33 109 -57c-76 -319 -35 -481 196 -355l9 -22
c-277 -163 -398 34 -339 334c-19 -8 -37 -10 -55 -6c-23 -31 -71 -66 -131 -48c-9 -119 -26 -242 -50 -355zM170 -60c-100 -31 -118 -91 -102 -113c15 -22 65 -7 102 113z" />
    <glyph glyph-name="y_alt4" horiz-adv-x="800" 
d="M294 -35v0c250 -69 -42 -495 -283 -391c-64 28 -127 99 -135 192c268 -298 649 103 412 175c-115 -394 -452 -53 -108 32c14 55 26 124 34 194c-109 -360 -293 -91 -174 361c90 -29 112 -45 109 -58c-49 -181 -46 -380 -10 -371c39 10 92 241 98 383
c1 13 119 -31 119 -40c-2 -25 -3 -50 -5 -75c42 -16 83 5 104 32c-48 31 -73 111 -27 210l88 -51c-68 -188 37 -169 50 -65c15 -5 115 -34 109 -58c-76 -319 -35 -481 196 -355l9 -22c-277 -163 -397 35 -339 334c-19 -8 -37 -9 -54 -6c-25 -32 -75 -69 -138 -45
c-10 -126 -28 -258 -55 -376zM171 -60c-102 -32 -119 -94 -101 -115c16 -20 65 -3 101 115z" />
    <glyph glyph-name="F_swsh" horiz-adv-x="543" 
d="M431 638c-2 -16 -12 -139 -30 -265c56 -2 105 -6 126 -6c1 -26 -59 -34 -132 -35c-9 -60 -19 -119 -32 -163c-58 -211 -186 -230 -329 -65c1 4 1 9 2 8c73 -72 142 -104 198 54c15 43 29 104 41 169c-46 2 -86 4 -103 4c-1 24 47 33 110 35c22 133 37 268 39 291
c-95 32 -182 67 -241 24c-96 -72 -19 -230 174 -233c12 0 -31 -69 -102 -56c-177 31 -213 272 -35 331c121 41 273 -21 401 -41c347 -55 793 -33 1027 141c14 -102 -69 -186 -102 -201c-66 -28 -194 -144 -1012 8z" />
    <glyph glyph-name="G_swsh" horiz-adv-x="558" 
d="M217 74v0c157 -73 181 271 182 364c63 -13 119 -27 118 -40c-7 -141 -24 -291 -55 -430c494 43 1003 -194 1528 -29c-363 -498 -850 76 -1535 0c-113 -409 -456 -63 -110 23c13 49 23 106 30 163c-37 -64 -94 -131 -177 -124c-212 19 -249 347 -134 563
c98 181 239 209 334 169c201 -83 82 -326 -142 -248c187 7 226 211 137 226c-85 15 -178 -91 -209 -164c-58 -136 -90 -414 33 -473zM336 -71c-113 -36 -122 -109 -94 -121c20 -9 62 17 94 121z" />
    <glyph glyph-name="L_swsh" horiz-adv-x="418" 
d="M1499 -32c-29 -68 -60 -125 -138 -152c-307 -105 -933 69 -1126 172c-120 -286 -404 10 -94 52c61 214 92 573 94 695c64 -13 126 -40 125 -53c-8 -161 -65 -503 -112 -658c410 -180 1035 -176 1251 -56zM128 -6c-93 -11 -113 -56 -98 -74c13 -17 57 -10 98 74z" />
    <glyph glyph-name="Q_swsh" horiz-adv-x="591" 
d="M97 584c15 101 108 189 234 177c348 -36 314 -708 -71 -763c771 -179 1433 -211 1709 -13c-156 -546 -1228 -53 -1914 -1c17 17 34 29 50 37c-151 109 -125 516 -8 563zM376 424c-44 -69 -160 -106 -224 -43c-18 18 -32 40 -41 63c-53 -190 2 -403 132 -403
c203 0 304 670 92 680c-193 9 -268 -425 41 -297z" />
    <glyph glyph-name="T_swsh" horiz-adv-x="500" 
d="M355 181c3 -171 75 -145 165 -104c1 0 3 -27 3 -31c-185 -101 -299 -35 -288 187c6 121 77 377 101 431c-99 33 -191 74 -253 28c-98 -72 -25 -229 169 -233c12 0 -33 -68 -104 -56c-176 31 -207 272 -27 332c120 40 269 -21 396 -41c347 -55 793 -34 1027 140
c14 -102 -68 -186 -102 -200c-66 -29 -194 -144 -1009 7c-14 -51 -81 -317 -78 -460z" />
    <glyph glyph-name="Y_swsh" horiz-adv-x="539" 
d="M215 69v0c138 -44 196 542 196 635c64 -13 120 -27 119 -40c-11 -199 -54 -502 -99 -703c490 37 994 -195 1515 -30c-362 -496 -844 67 -1522 1c-112 -411 -457 -65 -111 21c13 49 36 188 44 245c-12 -78 -78 -210 -162 -202c-206 19 -102 413 -97 455
c-123 88 -113 213 -59 263c67 61 212 54 216 -10c4 -58 -22 -149 -35 -232c0 0 56 -17 75 -21c-35 -53 -80 -38 -85 -36c-28 -105 -49 -329 5 -346zM109 513v0c0 -3 22 121 23 124c25 101 -34 101 -76 55c-37 -42 -33 -133 53 -179zM304 -80c-112 -36 -121 -108 -94 -121
c21 -9 62 17 94 121z" />
    </font>
</defs>
</svg>
